<svg xmlns="http://www.w3.org/2000/svg" width="1000" height="170" viewBox="0 0 1000 170">
  <defs>
    <style>
      .cls-1 {
        fill: #0da9c4;
      }

      .cls-1, .cls-2 {
        fill-rule: evenodd;
      }

      .cls-2 {
        fill: #ff671d;
      }
    </style>
  </defs>
  <path id="形状_1" data-name="形状 1" class="cls-1" d="M173.684,146.316V66.136h16.084v66.331h36.848v13.849H173.684Zm110.392-80.18,33.192,80.18H299.43l-6.142-15.161H255.71l-6.141,15.161H231.584l33.338-80.18h19.154Zm-9.5,16.182-14.183,34.988h28.22Zm46.2,53.5,7.75-12.246c5.41,5.54,15.5,10.789,26.465,10.789,11.7,0,16.523-4.958,16.523-10.789,0-16.327-48.106-5.539-48.106-35.279,0-13.412,12.575-23.908,31-23.908,13.453,0,23.98,4.374,31.583,11.517L378.24,87.275c-6.141-6.123-15.646-9.33-23.98-9.33-8.773,0-14.475,4.227-14.475,9.913,0,14.287,48.1,4.519,48.1,35.133,0,14.578-11.259,25.074-33.484,25.074C339.638,148.065,327.648,142.671,320.776,135.82Zm74.714,0,7.75-12.246c5.41,5.54,15.5,10.789,26.466,10.789,11.7,0,16.522-4.958,16.522-10.789,0-16.327-48.105-5.539-48.105-35.279,0-13.412,12.574-23.908,31-23.908,13.452,0,23.98,4.374,31.583,11.517l-7.75,11.371c-6.141-6.123-15.645-9.33-23.979-9.33-8.774,0-14.476,4.227-14.476,9.913,0,14.287,48.106,4.519,48.106,35.133,0,14.578-11.259,25.074-33.484,25.074C414.353,148.065,402.363,142.671,395.49,135.82Zm81.148,10.5V66.136h58.635V79.986H492.722V98.5h41.819v13.849H492.722v20.118h42.551v13.849H476.638Zm68.869-10.5,7.748-12.246c5.411,5.54,15.5,10.789,26.466,10.789,11.7,0,16.523-4.958,16.523-10.789,0-16.327-48.106-5.539-48.106-35.279,0-13.412,12.575-23.908,31-23.908,13.452,0,23.979,4.374,31.583,11.517l-7.75,11.371c-6.141-6.123-15.645-9.33-23.98-9.33-8.773,0-14.475,4.227-14.475,9.913,0,14.287,48.105,4.519,48.105,35.133,0,14.578-11.258,25.074-33.483,25.074C564.369,148.065,552.378,142.671,545.507,135.82Zm-449.678-60v20.6h44.638S133.2,135.125,88.977,131.4c0,0-36.6-2.553-39.617-47.334,0,0,.9-43.745,48.026-43.745,0,0,29.373-3.372,40.273,29.23h20.97s-4.321-37.372-48.474-48c0,0-49.275-12.558-74.189,36.155,0,0-19.966,36.018,10.657,72.864,0,0,26.264,30.428,66.126,19.147,0,0,56.368-15.835,48.064-73.795Z"/>
  <path id="形状_1-2" data-name="形状 1" class="cls-2" d="M621.784,129.336L633.743,112.9a51.982,51.982,0,0,0,38.229,16.8c17.393,0,24.1-8.49,24.1-16.618,0-25.29-70.3-9.575-70.3-53.831,0-20.051,17.393-35.406,44.026-35.406,18.663,0,34.062,6.142,45.115,16.98L702.953,56.538c-9.6-9.574-22.465-13.909-35.148-13.909-12.32,0-20.293,6.142-20.293,14.993,0,22.58,70.3,8.671,70.3,53.47,0,20.05-14.314,37.392-46.745,37.392C648.78,148.484,632.655,140.535,621.784,129.336Zm166.448,16.98V112.058h-42.4v34.258H729.745V66.136h16.084V98.209h42.4V66.136h15.792v80.18H788.232Zm24.124-40.09c0-23.908,17.108-41.839,42.4-41.839s42.55,17.931,42.55,41.839-17.253,41.839-42.55,41.839S812.356,130.135,812.356,106.226Zm68.577,0c0-15.89-10.235-27.844-26.174-27.844s-26.172,11.954-26.172,27.844c0,15.745,10.235,27.845,26.172,27.845S880.933,121.971,880.933,106.226Zm24.561,40.09V66.136h38.017C961.35,66.136,971,77.945,971,91.648s-9.066,25.512-27.489,25.512H921.579v29.156H905.494ZM954.77,91.648c0-6.852-4.679-11.663-13.013-11.663H921.579v23.325h20.178C950.237,103.311,954.77,98.353,954.77,91.648Z"/>
</svg>