<svg version="1.0" xmlns="http://www.w3.org/2000/svg" width="1199.000000" height="621.000000" preserveAspectRatio="xMidYMid meet"><rect id="backgroundrect" width="100%" height="100%" x="0" y="0" fill="none" stroke="none"/>


<g class="currentLayer" style=""><title>Layer 1</title><g id="hyper" transform="translate(0, 621) scale(0.1, -0.1)" fill="#6d6d6d" stroke="none" class="selected" fill-opacity="1">
<path d="M1973 6003 c-703 -522 -1204 -890 -1750 -1283 -117 -84 -213 -156 -213 -161 0 -4 75 -79 168 -165 360 -341 701 -698 963 -1012 164 -196 351 -443 345 -457 -2 -6 -44 -67 -93 -136 -279 -393 -406 -722 -406 -1054 0 -277 65 -463 260 -747 67 -98 101 -140 119 -144 14 -4 27 -5 29 -3 2 3 -3 47 -11 99 -21 138 -29 433 -15 570 29 293 115 537 252 719 65 87 179 191 208 191 12 0 54 -52 123 -153 209 -301 376 -579 561 -932 100 -191 96 -152 -15 145 -227 610 -521 1187 -866 1695 -259 383 -516 684 -858 1006 -123 116 -228 219 -234 228 -8 15 9 31 108 102 64 46 306 226 537 399 231 174 629 469 885 657 256 187 476 350 490 361 l25 20 -30 32 c-31 33 -286 230 -297 230 -4 0 -132 -93 -285 -207z" id="svg_1" fill="#6d6d6d"/>
<path d="M2290 5470 c-1018 -777 -1360 -1042 -1360 -1051 0 -6 62 -83 137 -171 314 -366 403 -482 617 -803 116 -176 228 -347 248 -380 120 -201 375 -696 513 -995 162 -351 294 -596 309 -572 11 18 -13 111 -108 414 -259 824 -420 1191 -797 1811 -128 209 -172 266 -361 469 l-138 147 128 87 c172 117 549 401 758 571 94 76 299 234 455 352 156 118 292 221 302 231 17 15 12 22 -95 137 -62 67 -115 122 -118 122 -3 1 -223 -166 -490 -369z" id="svg_2" fill="#6d6d6d"/>
<path d="M3180 5334 c-25 -19 -128 -93 -230 -165 -102 -73 -216 -155 -255 -184 -347 -259 -617 -458 -755 -558 -91 -66 -169 -123 -173 -127 -12 -11 15 -60 231 -420 514 -853 794 -1521 953 -2274 22 -105 42 -192 45 -195 2 -3 2 26 -1 65 -2 38 -7 107 -10 154 -5 77 -40 352 -65 520 -103 672 -354 1382 -686 1940 -35 60 -64 111 -64 114 0 7 236 190 615 476 l344 260 43 -57 c170 -231 317 -545 469 -1003 79 -241 148 -480 258 -905 79 -302 108 -386 97 -280 -3 28 -8 106 -11 175 -38 793 -227 1539 -546 2150 -85 162 -190 338 -204 343 -5 2 -30 -11 -55 -29z" id="svg_3" fill="#6d6d6d"/>
<path d="M4320 3460 l0 -750 235 0 235 0 0 295 0 295 250 0 250 0 0 -295 0 -295 235 0 235 0 0 750 0 750 -235 0 -235 0 0 -265 0 -265 -250 0 -250 0 0 265 0 265 -235 0 -235 0 0 -750z" id="svg_4" fill="#6d6d6d"/>
<path d="M6074 3888 c118 -178 248 -374 290 -436 l76 -112 0 -315 0 -315 235 0 235 0 0 310 0 309 290 436 c160 239 290 437 290 440 0 3 -116 5 -258 5 l-258 0 -144 -245 c-80 -134 -148 -245 -151 -245 -3 0 -72 110 -153 245 l-147 245 -259 0 -259 0 213 -322z" id="svg_5" fill="#6d6d6d"/>
<path d="M7570 3460 l0 -750 235 0 235 0 0 274 0 273 198 6 c216 6 285 18 380 66 179 91 266 309 217 542 -9 39 -24 91 -34 115 -27 60 -100 135 -165 168 -107 54 -123 56 -613 56 l-453 0 0 -750z m732 423 c56 -25 88 -78 88 -145 0 -64 -28 -109 -85 -137 -40 -20 -67 -25 -157 -29 l-108 -5 0 173 0 173 108 -5 c79 -3 119 -10 154 -25z" id="svg_6" fill="#6d6d6d"/>
<path d="M9030 3460 l0 -750 635 0 635 0 0 170 0 170 -397 2 -398 3 -3 148 -3 147 359 0 360 0 6 31 c8 40 8 193 0 242 l-7 37 -358 0 -359 0 0 115 0 115 390 0 390 0 0 160 0 160 -625 0 -625 0 0 -750z" id="svg_7" fill="#6d6d6d"/>
<path d="M10500 3460 l0 -750 240 0 240 0 0 306 0 307 50 -6 c66 -8 105 -32 140 -87 30 -49 171 -306 240 -437 l42 -83 264 0 c145 0 264 2 264 4 0 3 -54 109 -119 236 -151 293 -198 356 -307 410 -22 11 -33 19 -26 20 29 0 169 73 200 103 46 44 90 108 108 158 71 204 -5 427 -177 514 -98 50 -159 55 -680 55 l-479 0 0 -750z m810 428 c53 -23 73 -51 78 -111 9 -113 -61 -154 -279 -164 l-126 -6 -6 24 c-9 32 -9 243 0 264 5 16 21 17 152 13 100 -3 157 -9 181 -20z" id="svg_8" fill="#6d6d6d"/>
<path d="M7550 1555 l0 -755 235 0 235 0 2 277 3 278 210 6 c222 7 271 15 370 64 213 104 292 435 162 678 -36 68 -91 120 -164 154 -104 48 -155 53 -620 53 l-433 0 0 -755z m711 434 c70 -24 109 -80 109 -156 0 -62 -27 -112 -73 -136 -44 -22 -146 -39 -218 -35 l-54 3 -3 168 -2 167 103 0 c57 0 119 -5 138 -11z" id="svg_9" fill="#6d6d6d"/>
<path d="M9125 1564 c-154 -411 -281 -750 -283 -755 -2 -5 103 -9 236 -9 l240 0 16 48 c8 26 24 80 36 120 l21 72 262 0 263 0 34 -117 35 -118 248 -3 247 -2 -18 47 c-10 27 -137 366 -283 755 l-264 708 -255 0 -255 0 -280 -746z m616 57 c38 -124 69 -228 69 -233 0 -4 -70 -8 -155 -8 -85 0 -155 3 -155 8 0 4 24 86 54 182 29 96 64 209 76 250 27 89 15 110 111 -199z" id="svg_10" fill="#6d6d6d"/>
<path d="M10296 2298 c4 -7 135 -205 291 -439 l283 -426 0 -317 0 -316 235 0 234 0 3 318 3 317 283 423 c156 233 286 430 289 438 4 12 -33 14 -253 12 l-258 -3 -128 -215 c-70 -118 -137 -230 -149 -249 l-21 -35 -149 252 -150 252 -260 0 c-205 0 -259 -3 -253 -12z" id="svg_11" fill="#6d6d6d"/>
<path d="M5145 2155 c-350 -71 -928 -193 -1302 -277 -57 -12 -103 -27 -103 -32 0 -16 91 -137 227 -300 73 -88 146 -178 161 -200 l27 -39 -35 -29 c-19 -16 -105 -83 -191 -148 -451 -341 -857 -564 -1272 -699 -147 -47 -228 -65 -409 -88 -117 -15 -152 -15 -243 -5 -116 13 -282 63 -372 112 -29 15 -53 25 -53 21 0 -11 114 -110 200 -173 199 -146 448 -251 662 -278 108 -13 399 -13 513 1 204 25 469 111 674 220 200 107 360 218 736 514 l160 126 80 -84 c44 -46 138 -145 209 -221 71 -75 132 -134 136 -129 4 4 77 215 163 468 85 253 221 653 301 889 81 236 145 430 144 431 -2 1 -187 -35 -413 -80z" id="svg_12" fill="#6d6d6d"/>
</g></g></svg>