<svg id="icon" xmlns="http://www.w3.org/2000/svg" width="140" height="140" viewBox="0 0 140 140">
  <defs>
    <style>
      .cls-1 {
        fill: none;
        stroke: #333;
        stroke-width: 5.291px;
      }

      .cls-2 {
        fill: #333;
        fill-rule: evenodd;
      }
    </style>
  </defs>
  <ellipse id="椭圆_610" data-name="椭圆 610" class="cls-1" cx="70.031" cy="70.312" rx="66.094" ry="66.094"/>
  <path id="形状_1" data-name="形状 1" class="cls-2" d="M43.187,108.087a11.5,11.5,0,0,1-7.569-3.425,10.64,10.64,0,0,1,0-15.488L61.656,63.532a30.049,30.049,0,0,1-1.09-4.649A23.417,23.417,0,0,1,83.787,32.543a18.931,18.931,0,0,1,7.091.954,4.438,4.438,0,0,1,2.486,3.254,3.228,3.228,0,0,1-.857,2.863l-11.6,11.574L88.38,58.65l11.88-11.867,0.379-.183a4.106,4.106,0,0,1,3.258-.33A3.634,3.634,0,0,1,106,48.141l0.085,0.2a31.642,31.642,0,0,1,1.69,7.9l0.025,0.318a22.862,22.862,0,0,1-7.556,17.054,24.318,24.318,0,0,1-18.617,6.166l-0.269-.036a42.345,42.345,0,0,1-4.556-1.089l-25.658,26a11.427,11.427,0,0,1-7.961,3.438h0Zm40.6-70.406A18.337,18.337,0,0,0,70.094,43.86a18.007,18.007,0,0,0-4.446,14.289,21.726,21.726,0,0,0,1.372,5.1l0.637,1.591L39.243,92.819a5.516,5.516,0,0,0,.013,8.209,6.5,6.5,0,0,0,3.931,1.92,6.171,6.171,0,0,0,4.311-1.92l28.009-28.37L77.1,73.294a29.52,29.52,0,0,0,5.156,1.371,19.275,19.275,0,0,0,14.55-4.857,17.723,17.723,0,0,0,5.879-13.1,42.765,42.765,0,0,0-.71-4.343l-10.24,10.2a4.857,4.857,0,0,1-6.7,0l-8.047-8.037a4.844,4.844,0,0,1,0-6.692L87.045,37.792a31.716,31.716,0,0,0-3.258-.11h0Zm0,0"/>
</svg>
