<svg id="icon" xmlns="http://www.w3.org/2000/svg" width="140" height="140" viewBox="0 0 140 140">
  <defs>
    <style>
      .cls-1 {
        fill: none;
        stroke: #333;
        stroke-width: 5.291px;
      }

      .cls-2 {
        fill: #333;
        fill-rule: evenodd;
      }
    </style>
  </defs>
  <circle id="椭圆_610" data-name="椭圆 610" class="cls-1" cx="70.36" cy="70.312" r="66.078"/>
  <path id="形状_2" data-name="形状 2" class="cls-2" d="M71.174,29.019l5.844,5.844A36.9,36.9,0,0,0,42.593,45.382c-9.719,10.057-12.2,25.454-7.148,38.4C36.542,86.6,41.1,85.441,40,82.607a32.367,32.367,0,0,1,5.16-33.018C52.874,40.439,65.188,37,76.653,39.61l-5.416,5.417c-2.14,2.14,1.2,5.486,3.345,3.345l9.632-9.632a2.378,2.378,0,0,0-.013-3.332L74.492,25.7c-2.157-2.158-5.476,1.161-3.318,3.318h0Zm0,0M101,58.393a32.363,32.363,0,0,1-5.16,33.018c-7.713,9.15-20.029,12.586-31.494,9.978l5.417-5.417c2.14-2.14-1.2-5.485-3.345-3.345l-9.632,9.633a2.376,2.376,0,0,0,.013,3.331l9.709,9.709c2.158,2.157,5.476-1.161,3.318-3.319l-5.844-5.844A36.892,36.892,0,0,0,98.407,95.618c9.72-10.056,12.2-25.454,7.147-38.4-1.1-2.811-5.658-1.657-4.554,1.177h0Zm0,0"/>
</svg>
