<svg id="icon" xmlns="http://www.w3.org/2000/svg" width="140" height="140" viewBox="0 0 140 140">
  <defs>
    <style>
      .cls-1 {
        fill: none;
        stroke: #333;
        stroke-width: 5.291px;
      }

      .cls-2 {
        fill: #333;
        fill-rule: evenodd;
      }
    </style>
  </defs>
  <ellipse id="椭圆_610" data-name="椭圆 610" class="cls-1" cx="69.906" cy="70.312" rx="66.094" ry="66.094"/>
  <path id="icon-2" data-name="icon" class="cls-2" d="M95.207,58.5a5.5,5.5,0,0,0-4.473-2.343H81.249v-8.09A5.884,5.884,0,0,0,75.583,42H37.808a5.884,5.884,0,0,0-5.666,6.069V86.5a5.884,5.884,0,0,0,5.666,6.068h7.823a7.409,7.409,0,0,0,14.574,0H85.027a1.629,1.629,0,0,0,.252-0.054,7.416,7.416,0,0,0,14.606,0,1.611,1.611,0,0,0,.253.054h1.888a5.884,5.884,0,0,0,5.667-6.068V77.771a6.39,6.39,0,0,0-1.194-3.727Zm-4.473,1.7a1.833,1.833,0,0,1,1.49.782l3.84,5.286H81.249V60.2h9.485ZM35.919,86.5V48.065a1.961,1.961,0,0,1,1.889-2.023H75.583a1.961,1.961,0,0,1,1.889,2.023V88.519H60.2a7.409,7.409,0,0,0-14.574,0H37.808A1.961,1.961,0,0,1,35.919,86.5Zm17,8.09A4.055,4.055,0,1,1,56.7,90.542,3.923,3.923,0,0,1,52.917,94.587Zm39.664,0a4.055,4.055,0,1,1,3.778-4.045A3.923,3.923,0,0,1,92.581,94.587Zm11.333-8.09a1.962,1.962,0,0,1-1.889,2.022h-1.888a1.67,1.67,0,0,0-.253.054,7.417,7.417,0,0,0-14.606,0,1.684,1.684,0,0,0-.252-0.054H81.249v-18.2h17a1.766,1.766,0,0,0,.652-0.141l4.615,6.352a2.142,2.142,0,0,1,.4,1.245V86.5Z"/>
</svg>
