<svg width="193" height="73" viewBox="0 0 193 73" fill="none" xmlns="http://www.w3.org/2000/svg">
<path d="M0.295455 59.4091V46.25L28.8977 1.18182H40.5909V19.0455H33.8068L17.0682 45.5682V46.1136H58.4886V59.4091H0.295455ZM34.0114 71V55.3864L34.3523 49.625V1.18182H50.1364V71H34.0114ZM96.2102 72.7045C90.1193 72.7045 84.8693 71.2614 80.4602 68.375C76.0511 65.4659 72.6534 61.2955 70.267 55.8636C67.8807 50.4091 66.6989 43.8523 66.7216 36.1932C66.7443 28.5341 67.9375 22.0341 70.3011 16.6932C72.6875 11.3295 76.0739 7.25 80.4602 4.45455C84.8693 1.63636 90.1193 0.22727 96.2102 0.22727C102.301 0.22727 107.551 1.63636 111.96 4.45455C116.392 7.25 119.801 11.3295 122.188 16.6932C124.574 22.0568 125.756 28.5568 125.733 36.1932C125.733 43.875 124.54 50.4432 122.153 55.8977C119.767 61.3523 116.369 65.5227 111.96 68.4091C107.574 71.2727 102.324 72.7045 96.2102 72.7045ZM96.2102 58.8977C99.8466 58.8977 102.79 57.0455 105.04 53.3409C107.29 49.6136 108.403 43.8977 108.381 36.1932C108.381 31.1477 107.869 26.9886 106.847 23.7159C105.824 20.4205 104.403 17.9659 102.585 16.3523C100.767 14.7386 98.642 13.9318 96.2102 13.9318C92.5966 13.9318 89.6761 15.7614 87.4489 19.4205C85.2216 23.0568 84.0966 28.6477 84.0739 36.1932C84.0511 41.3068 84.5398 45.5455 85.5398 48.9091C86.5625 52.2727 87.9943 54.7841 89.8352 56.4432C91.6761 58.0795 93.8011 58.8977 96.2102 58.8977ZM134.545 59.4091V46.25L163.148 1.18182H174.841V19.0455H168.057L151.318 45.5682V46.1136H192.739V59.4091H134.545ZM168.261 71V55.3864L168.602 49.625V1.18182H184.386V71H168.261Z" fill="black"/>
</svg>
