<svg width="100" height="110" viewBox="0 0 100 110" fill="none" xmlns="http://www.w3.org/2000/svg">
<path d="M90.6789 21.6875L58.5039 3.10831C53.2497 0.0749797 46.7497 0.0749797 41.4414 3.10831L9.32057 21.6875C4.0664 24.7208 0.816406 30.3541 0.816406 36.475V73.525C0.816406 79.5917 4.0664 85.225 9.32057 88.3125L41.4956 106.892C46.7497 109.925 53.2497 109.925 58.5581 106.892L90.7331 88.3125C95.9872 85.2792 99.2372 79.6458 99.2372 73.525V36.475C99.1831 30.3541 95.9331 24.775 90.6789 21.6875ZM49.9997 29.7583C56.9872 29.7583 62.6206 35.3916 62.6206 42.3792C62.6206 49.3666 56.9872 55 49.9997 55C43.0122 55 37.3789 49.3666 37.3789 42.3792C37.3789 35.4458 43.0122 29.7583 49.9997 29.7583ZM64.5164 80.2417H35.4831C31.0956 80.2417 28.5497 75.3667 30.9872 71.7375C34.6706 66.2666 41.8206 62.5833 49.9997 62.5833C58.1789 62.5833 65.3289 66.2666 69.0122 71.7375C71.4497 75.3125 68.8497 80.2417 64.5164 80.2417Z" fill="#4DE68A"/>
</svg>
