<svg width="115" height="115" viewBox="0 0 115 115" fill="none" xmlns="http://www.w3.org/2000/svg">
<path fill-rule="evenodd" clip-rule="evenodd" d="M76.0083 16.0436C76.0083 28.7218 86.3011 38.9995 98.9978 38.9995C100.396 38.9926 101.79 38.8584 103.164 38.5985V84.1092C103.164 103.256 91.8701 114.583 72.6954 114.583H30.9329C11.708 114.583 0.414062 103.256 0.414062 84.1092V42.4078C0.414062 23.2612 11.708 11.8334 30.9329 11.8334H76.4099C76.1401 13.2205 76.0056 14.6305 76.0083 16.0436ZM64.0576 74.0347L80.3711 52.9835V52.8833C81.7677 51.0066 81.4113 48.3604 79.568 46.9188C78.6757 46.23 77.542 45.9319 76.4257 46.0925C75.3095 46.253 74.3061 46.8586 73.6449 47.7708L59.8914 65.4639L44.2304 53.1339C43.3363 52.4373 42.1988 52.1298 41.0749 52.2807C39.9509 52.4316 38.9352 53.0282 38.2571 53.9358L21.3915 75.6888C20.7986 76.4277 20.4795 77.3483 20.488 78.2951C20.3901 80.2086 21.5984 81.9468 23.4279 82.5243C25.2575 83.1018 27.2468 82.373 28.2682 80.7511L42.3732 62.5067L58.0341 74.7866C58.9249 75.5047 60.0698 75.8303 61.2058 75.6885C62.3418 75.5467 63.3712 74.9497 64.0576 74.0347Z" fill="#4DE68A"/>
<path opacity="0.4" d="M100.31 28.9584C108.191 28.9584 114.581 22.5691 114.581 14.6875C114.581 6.80596 108.191 0.416687 100.31 0.416687C92.4283 0.416687 86.0391 6.80596 86.0391 14.6875C86.0391 22.5691 92.4283 28.9584 100.31 28.9584Z" fill="#4DE68A"/>
</svg>
