<svg width="297.6956522464752" height="292.79710149765015" xmlns="http://www.w3.org/2000/svg"><rect id="backgroundrect" width="100%" height="100%" x="0" y="0" fill="none" stroke="none" style="" class=""/><g class="currentLayer" style=""><title>Layer 1</title><g clip-rule="evenodd" fill-rule="evenodd" id="svg_1" class="" fill="#6d6d6d" fill-opacity="1"><path d="m183.778253364563,172.9536164522171 c-16.5,12.2 -40.5,18.7 -61.2,18.7 c-29,0 -55,-10.7 -74.8,-28.5 c-1.5,-1.4 -0.2,-3.3 1.7000000000000002,-2.2 c21.3,12.4 47.6,19.8 74.8,19.8 c18.3,0 38.5,-3.8 57.1,-11.7 c2.8,-1.1 5.1,1.9 2.4,3.9 z" fill="#6d6d6d" id="svg_2" fill-opacity="1"/><path d="m190.67825336456298,165.0536164522171 c-2.1,-2.7 -14,-1.3 -19.3,-0.6000000000000004 c-1.6,0.2 -1.9,-1.2 -0.4,-2.2 c9.5,-6.7 25,-4.7 26.8,-2.5 s-0.5,17.8 -9.4,25.2 c-1.4,1.1 -2.7,0.5 -2.1,-1 c2,-5 6.5,-16.1 4.4,-18.9 z" fill="#6d6d6d" id="svg_3" fill-opacity="1"/><path d="m171.67825336456298,115.2536164522171 v-6.5 c0,-1 0.7000000000000004,-1.6 1.6,-1.6 h29 c0.9,0 1.7000000000000002,0.7000000000000004 1.7000000000000002,1.6 v5.5 c0,0.9 -0.8,2.1 -2.2,4.1 l-15,21.4 c5.6,-0.1 11.5,0.7000000000000004 16.5,3.5 c1.1,0.6000000000000004 1.4,1.6 1.5,2.5 v6.9 c0,1 -1,2.1 -2.1,1.5 c-8.9,-4.7 -20.8,-5.2 -30.6,0.1 c-1,0.5 -2.1,-0.5 -2.1,-1.5 v-6.6 c0,-1 0,-2.8 1.1,-4.4 l17.4,-24.9 h-15.1 c-0.9,0 -1.7000000000000002,-0.7000000000000004 -1.7000000000000002,-1.6 zm-105.7,40.3 h-8.8 c-0.8,-0.1 -1.5,-0.7000000000000004 -1.6,-1.5 v-45.2 c0,-0.9 0.8,-1.6 1.7000000000000002,-1.6 h8.2 c0.9,0 1.5,0.7000000000000004 1.6,1.5 v5.9 h0.2 c2.1,-5.7 6.2,-8.4 11.6,-8.4 c5.5,0 9,2.7 11.4,8.4 c2.1,-5.7 7,-8.4 12.2,-8.4 c3.7,0 7.7,1.5 10.2,5 c2.8,3.8 2.2,9.3 2.2,14.2 v28.6 c0,0.9 -0.8,1.6 -1.7000000000000002,1.6 h-8.7 c-0.9,-0.1 -1.6,-0.8 -1.6,-1.6 v-24 c0,-1.9 0.2,-6.7 -0.2,-8.5 c-0.7000000000000004,-3 -2.6,-3.9 -5.2,-3.9 c-2.1,0 -4.4,1.4 -5.3,3.7 s-0.8,6.1 -0.8,8.7 v24 c0,0.9 -0.8,1.6 -1.7000000000000002,1.6 h-8.8 c-0.9,-0.1 -1.6,-0.8 -1.6,-1.6 v-24 c0,-5 0.8,-12.5 -5.4,-12.5 c-6.3,0 -6.1,7.2 -6.1,12.5 v24 c-0.1,0.8 -0.8,1.5 -1.8,1.5 zm163,-49.3 c13.1,0 20.2,11.2 20.2,25.5 c0,13.8 -7.8,24.8 -20.2,24.8 c-12.8,0 -19.8,-11.2 -19.8,-25.2 c-0.1,-14.1 7,-25.1 19.8,-25.1 zm0,9.3 c-6.5,0 -6.9,8.9 -6.9,14.4 s-0.1,17.3 6.8,17.3 c6.8,0 7.2,-9.5 7.2,-15.3 c0,-3.8 -0.2,-8.4 -1.3,-12 c-1,-3.2 -3,-4.4 -5.8,-4.4 zm37.1,40 h-8.8 c-0.9,-0.1 -1.6,-0.8 -1.6,-1.6 v-45.3 c0.1,-0.8 0.8,-1.5 1.7000000000000002,-1.5 h8.2 c0.8,0 1.4,0.6000000000000004 1.6,1.3 v6.9 h0.2 c2.5,-6.2 5.9,-9.1 12,-9.1 c3.9,0 7.8,1.4 10.3,5.3 c2.3,3.6 2.3,9.7 2.3,14.1 v28.5 c-0.1,0.8 -0.8,1.4 -1.7000000000000002,1.4 h-8.8 c-0.8,-0.1 -1.5,-0.7000000000000004 -1.6,-1.4 v-24.6 c0,-5 0.6000000000000004,-12.2 -5.5,-12.2 c-2.1,0 -4.1,1.4 -5.1,3.6 c-1.2,2.8 -1.4,5.5 -1.4,8.6 v24.4 c-0.1,0.9 -0.9,1.6 -1.8,1.6 zm-117.5,-21.6 c0,3.4 0.1,6.3 -1.6,9.4 c-1.4,2.5 -3.6,4 -6.1,4 c-3.4,0 -5.4,-2.6 -5.4,-6.4 c0,-7.5 6.7,-8.9 13.1,-8.9 zm8.9,21.5 c-0.6000000000000004,0.5 -1.4,0.6000000000000004 -2.1,0.2 c-2.9,-2.4 -3.5,-3.6 -5.1,-5.9 c-4.8,4.9 -8.3,6.4 -14.5,6.4 c-7.4,0 -13.2,-4.6 -13.2,-13.7 c0,-7.2 3.9,-12 9.4,-14.4 c4.8,-2.1 11.5,-2.5 16.6,-3.1 v-1.1 c0,-2.1 0.2,-4.6 -1.1,-6.4 c-1.1,-1.6 -3.1,-2.3 -4.9,-2.3 c-3.4,0 -6.4,1.7000000000000002 -7.1,5.3 c-0.2,0.8 -0.7000000000000004,1.6 -1.5,1.6 l-8.5,-0.9 c-0.7000000000000004,-0.2 -1.5,-0.7000000000000004 -1.3,-1.8 c2,-10.4 11.3,-13.5 19.7,-13.5 c4.3,0 9.9,1.1 13.3,4.4 c4.3,4 3.9,9.4 3.9,15.2 v13.7 c0,4.1 1.7000000000000002,5.9 3.3,8.2 c0.6000000000000004,0.8 0.7000000000000004,1.8 0,2.3 c-1.9,1.5 -5.1,4.3 -6.9,5.8 zm-124.4,-21.5 c0,3.4 0.1,6.3 -1.6,9.4 c-1.4,2.5 -3.6,4 -6.1,4 c-3.4,0 -5.4,-2.6 -5.4,-6.4 c0,-7.5 6.7,-8.9 13.1,-8.9 zm8.8,21.5 c-0.6000000000000004,0.5 -1.4,0.6000000000000004 -2.1,0.2 c-2.9,-2.4 -3.5,-3.6 -5.1,-5.9 c-4.8,4.9 -8.3,6.4 -14.5,6.4 c-7.4,0 -13.2,-4.6 -13.2,-13.7 c0,-7.2 3.9,-12 9.4,-14.4 c4.8,-2.1 11.5,-2.5 16.6,-3.1 v-1.1 c0,-2.1 0.2,-4.6 -1.1,-6.4 c-1.1,-1.6 -3.1,-2.3 -4.9,-2.3 c-3.4,0 -6.4,1.7000000000000002 -7.1,5.3 c-0.2,0.8 -0.7000000000000004,1.6 -1.5,1.6 l-8.5,-0.9 c-0.7000000000000004,-0.2 -1.5,-0.7000000000000004 -1.3,-1.8 c2,-10.4 11.3,-13.5 19.7,-13.5 c4.3,0 9.9,1.1 13.3,4.4 c4.3,4 3.9,9.4 3.9,15.2 v13.7 c0,4.1 1.7000000000000002,5.9 3.3,8.2 c0.6000000000000004,0.8 0.7000000000000004,1.8 0,2.3 c-1.9,1.5 -5.1,4.3 -6.9,5.8 z" id="svg_4" fill="#6d6d6d" fill-opacity="1"/></g></g></svg>