<svg width="97" height="108" viewBox="0 0 97 108" fill="none" xmlns="http://www.w3.org/2000/svg">
<path fill-rule="evenodd" clip-rule="evenodd" d="M96.5326 77.1405L92.3891 43.7582C89.8649 31.8464 82.7209 26.9445 75.9103 26.9445H21.1876C14.2817 26.9445 6.89963 31.5033 4.75644 43.7582L0.565319 77.1405C-2.86378 101.65 9.75722 107.778 26.236 107.778H70.9096C87.3407 107.778 99.5807 98.9052 96.5326 77.1405ZM32.8676 54.6896C30.2373 54.6896 28.105 52.4949 28.105 49.7876C28.105 47.0803 30.2373 44.8856 32.8676 44.8856C35.4979 44.8856 37.6302 47.0803 37.6302 49.7876C37.6302 52.4949 35.4979 54.6896 32.8676 54.6896ZM59.2961 49.7876C59.2961 52.4949 61.4284 54.6896 64.0587 54.6896C66.6891 54.6896 68.8214 52.4949 68.8214 49.7876C68.8214 47.0803 66.6891 44.8856 64.0587 44.8856C61.4284 44.8856 59.2961 47.0803 59.2961 49.7876Z" fill="#4DE68A"/>
<path opacity="0.4" d="M75.3028 25.7283C75.3197 26.1463 75.2393 26.5625 75.0681 26.9444H67.3236C67.1737 26.5561 67.0942 26.1443 67.089 25.7283C67.089 15.3951 58.6834 7.0184 48.3146 7.0184C37.9457 7.0184 29.5402 15.3951 29.5402 25.7283C29.6112 26.1306 29.6112 26.5422 29.5402 26.9444H21.608C21.5369 26.5422 21.5369 26.1306 21.608 25.7283C22.2106 11.3485 34.0838 0 48.5258 0C62.9677 0 74.8409 11.3485 75.4436 25.7283H75.3028Z" fill="#4DE68A"/>
</svg>
