<?xml version="1.0" encoding="iso-8859-1"?>
<!-- Generator: Adobe Illustrator 19.0.0, SVG Export Plug-In . SVG Version: 6.00 Build 0)  -->
<svg version="1.1" id="Layer_1" xmlns="http://www.w3.org/2000/svg" xmlns:xlink="http://www.w3.org/1999/xlink" x="0px" y="0px"
	 viewBox="0 0 295.24 295.24" style="enable-background:new 0 0 295.24 295.24;" xml:space="preserve">
<g id="business_3">
	<g>
		<g>
			<path d="M276.19,186.196v-77.152c10.852-2.214,19.048-11.829,19.048-23.329c0-13.129-10.681-23.81-23.81-23.81
				c-4.324,0-8.324,1.248-11.824,3.267L171.266,25.42c0.038-0.543,0.162-1.057,0.162-1.61c0-13.129-10.681-23.81-23.81-23.81
				c-13.129,0-23.81,10.681-23.81,23.81c0,0.552,0.124,1.067,0.162,1.61L35.633,65.172c-3.5-2.019-7.5-3.267-11.824-3.267
				C10.681,61.906,0,72.587,0,85.715c0,11.495,8.195,21.114,19.048,23.329v77.152C8.195,188.411,0,198.03,0,209.525
				c0,13.129,10.681,23.81,23.81,23.81c4.324,0,8.324-1.248,11.824-3.267l88.343,39.752c-0.043,0.543-0.167,1.057-0.167,1.61
				c0,13.129,10.681,23.81,23.81,23.81c13.129,0,23.81-10.681,23.81-23.81c0-0.552-0.124-1.067-0.162-1.61l88.343-39.752
				c3.495,2.019,7.495,3.267,11.819,3.267c13.129,0,23.81-10.681,23.81-23.81C295.238,198.03,287.043,188.411,276.19,186.196z
				 M271.428,71.429c7.877,0.001,14.286,6.41,14.286,14.286s-6.41,14.286-14.286,14.286c-7.876,0-14.286-6.41-14.286-14.286
				S263.552,71.429,271.428,71.429z M266.667,109.044v77.152c-1.41,0.286-2.762,0.734-4.067,1.262l-25.352-39.838l25.352-39.838
				C263.91,108.306,265.257,108.753,266.667,109.044z M231.605,138.749l-30.719-48.271H248.1v-0.001
				c0.952,4.667,3.276,8.843,6.529,12.086L231.605,138.749z M225.958,147.62l-36.362,57.143h-83.948L69.286,147.62l36.362-57.143
				h83.948L225.958,147.62z M168.671,34.696l83.234,37.457c-1.819,2.61-3.148,5.576-3.805,8.8h-53.276l-27.71-43.543
				C167.709,36.558,168.19,35.629,168.671,34.696z M147.619,9.525c7.876,0,14.286,6.41,14.286,14.286s-6.41,14.286-14.286,14.286
				s-14.286-6.41-14.286-14.286S139.743,9.525,147.619,9.525z M135.205,44.03c3.624,2.233,7.852,3.59,12.414,3.59
				s8.79-1.357,12.414-3.59l23.5,36.924h-71.829L135.205,44.03z M126.571,34.697c0.481,0.928,0.958,1.856,1.553,2.714l-27.71,43.543
				H47.138c-0.657-3.224-1.986-6.19-3.805-8.8L126.571,34.697z M47.138,90.477h47.219l-30.719,48.271l-23.024-36.186
				C43.862,99.32,46.186,95.144,47.138,90.477z M57.99,147.62l-25.352,39.838c-1.305-0.529-2.657-0.976-4.067-1.262v-77.152
				c1.41-0.286,2.762-0.733,4.067-1.262L57.99,147.62z M9.524,85.715c0-7.876,6.41-14.286,14.286-14.286s14.286,6.41,14.286,14.286
				s-6.41,14.286-14.286,14.286S9.524,93.591,9.524,85.715z M23.81,223.811c-7.876,0-14.286-6.41-14.286-14.286
				s6.41-14.286,14.286-14.286s14.286,6.41,14.286,14.286C38.096,217.401,31.686,223.811,23.81,223.811z M63.633,156.491
				l30.719,48.271H47.138v0.001c-0.952-4.667-3.276-8.843-6.529-12.086L63.633,156.491z M126.567,260.544l-83.234-37.457
				c1.819-2.61,3.148-5.576,3.805-8.8h53.276l27.71,43.543C127.529,258.682,127.048,259.611,126.567,260.544z M147.619,285.715
				c-7.876,0-14.286-6.41-14.286-14.286c0-7.876,6.41-14.286,14.286-14.286s14.286,6.41,14.286,14.286
				C161.905,279.306,155.495,285.715,147.619,285.715z M160.033,251.211c-3.624-2.233-7.852-3.59-12.414-3.59
				s-8.79,1.357-12.414,3.59l-23.5-36.924h71.824L160.033,251.211z M168.667,260.544c-0.481-0.929-0.957-1.857-1.553-2.714
				l27.71-43.543H248.1c0.657,3.224,1.986,6.19,3.805,8.8L168.667,260.544z M248.1,204.763h-47.219l30.719-48.272l23.024,36.186
				C251.376,195.92,249.052,200.096,248.1,204.763z M271.429,223.811c-7.876,0-14.286-6.41-14.286-14.286s6.41-14.286,14.286-14.286
				c7.876,0,14.286,6.41,14.286,14.286C285.714,217.401,279.305,223.811,271.429,223.811z"/>
			<path d="M147.619,95.239c-28.881,0-52.381,23.5-52.381,52.381c0,28.881,23.5,52.381,52.381,52.381
				c28.881,0,52.381-23.5,52.381-52.381C200,118.739,176.5,95.239,147.619,95.239z M133.89,107.058
				c-3.495,4.352-7.157,10-9.986,16.752H112.01C117.21,116.053,124.89,110.115,133.89,107.058z M107.261,133.334h13.533
				c-0.727,3.015-1.261,6.181-1.523,9.524h-14.229C105.409,139.553,106.185,136.372,107.261,133.334z M107.258,161.906
				c-1.072-3.038-1.848-6.219-2.215-9.524h14.229c0.262,3.343,0.795,6.51,1.519,9.524H107.258z M112.01,171.43h11.895
				c2.829,6.752,6.49,12.4,9.986,16.752C124.89,185.125,117.21,179.187,112.01,171.43z M142.857,184.001
				c-2.776-3.219-5.843-7.443-8.443-12.571h8.443V184.001z M142.857,161.906h-12.243c-0.866-2.976-1.495-6.157-1.809-9.524h14.052
				V161.906z M142.857,142.858h-14.052c0.319-3.367,0.957-6.543,1.829-9.524h12.223V142.858z M142.857,123.811h-8.405
				c2.59-5.095,5.643-9.31,8.405-12.524V123.811z M183.229,123.811h-11.895c-2.829-6.752-6.49-12.4-9.986-16.752
				C170.348,110.115,178.029,116.053,183.229,123.811z M166.434,142.858h-14.052v-9.524h12.242
				C165.486,136.31,166.119,139.491,166.434,142.858z M152.381,111.24c2.776,3.219,5.843,7.443,8.443,12.571h-8.443V111.24z
				 M152.381,152.382h14.052c-0.319,3.367-0.957,6.543-1.829,9.524h-12.223V152.382z M152.381,183.954V171.43h8.405
				C158.196,176.525,155.143,180.74,152.381,183.954z M161.348,188.182c3.495-4.352,7.157-10,9.986-16.752h11.895
				C178.029,179.187,170.348,185.125,161.348,188.182z M187.977,161.906h-13.533c0.727-3.015,1.261-6.181,1.523-9.524h14.229
				C189.829,155.687,189.053,158.868,187.977,161.906z M190.2,142.858h-14.233c-0.262-3.343-0.795-6.51-1.519-9.524h13.533
				C189.062,136.372,189.833,139.553,190.2,142.858z"/>
			<rect x="142.857" y="61.906" width="9.524" height="9.524"/>
			<rect x="142.857" y="223.811" width="9.524" height="9.524"/>
			<rect x="223.81" y="185.715" width="9.524" height="9.524"/>
			<rect x="61.905" y="185.715" width="9.524" height="9.524"/>
			<rect x="223.81" y="100.001" width="9.524" height="9.524"/>
			<rect x="61.905" y="100.001" width="9.524" height="9.524"/>
		</g>
	</g>
</g>
<g>
</g>
<g>
</g>
<g>
</g>
<g>
</g>
<g>
</g>
<g>
</g>
<g>
</g>
<g>
</g>
<g>
</g>
<g>
</g>
<g>
</g>
<g>
</g>
<g>
</g>
<g>
</g>
<g>
</g>
</svg>
