<?xml version="1.0" encoding="iso-8859-1"?>
<!-- Generator: Adobe Illustrator 19.0.0, SVG Export Plug-In . SVG Version: 6.00 Build 0)  -->
<svg version="1.1" id="Layer_1" xmlns="http://www.w3.org/2000/svg" xmlns:xlink="http://www.w3.org/1999/xlink" x="0px" y="0px"
	 viewBox="0 0 295.24 295.24" style="enable-background:new 0 0 295.24 295.24;" xml:space="preserve">
<g id="business_5">
	<g>
		<g>
			<path d="M295.238,242.857h-38.095V133.333h-76.19v109.524h-66.667v-14.286h47.619v-95.238h-9.524v-9.524h133.333v-4.762
				C285.714,53.405,232.31,0,166.667,0h-38.095C62.929,0,9.524,53.405,9.524,119.048v4.762h133.333v9.524H19.048v95.238h47.619
				v14.286H0v28.571h9.524v23.81h9.524v-23.81h9.524v23.81h9.524v-23.81h219.048v23.81h9.524v-23.81h9.524v23.81h9.524v-23.81h9.524
				v-28.572H295.238z M190.476,142.857h57.143v38.095h-57.143V142.857z M190.476,190.477h57.143v52.381h-57.143V190.477z
				 M276.09,114.286h-38.157c-1.681-43.938-26.41-83.595-65.5-104.295l-0.638-0.338C228.238,12.268,273.662,57.8,276.09,114.286z
				 M167.976,18.406c35.967,19.048,58.757,55.481,60.433,95.881h-37.933V96.729c0-29.419-9.367-57.395-26.676-80.538L167.976,18.406
				z M19.148,114.285C21.576,57.8,67,12.268,123.443,9.652l-0.638,0.338c-39.09,20.7-63.819,60.357-65.5,104.295H19.148z
				 M104.762,114.285H66.829c1.676-40.4,24.467-76.833,60.429-95.881l4.18-2.209c-17.31,23.138-26.676,51.114-26.676,80.533V114.285
				z M114.285,114.286V96.729h0.001c0-31.838,11.814-61.848,33.333-85.067c21.519,23.219,33.333,53.229,33.333,85.067v17.557
				H114.285z M28.571,142.857h123.81V200H28.571V142.857z M28.571,219.048v-9.524h123.81v9.524H28.571z M104.761,228.571v14.286
				H76.19v-14.286H104.761z M285.714,261.905H9.524v-9.524h171.429h76.19h28.571V261.905z"/>
			<rect x="200" y="200" width="38.095" height="9.524"/>
			<rect x="200" y="219.048" width="38.095" height="9.524"/>
			<rect x="38.095" y="152.381" width="9.524" height="9.524"/>
			<rect x="57.143" y="152.381" width="9.524" height="9.524"/>
			<rect x="76.19" y="152.381" width="9.524" height="9.524"/>
		</g>
	</g>
</g>
<g>
</g>
<g>
</g>
<g>
</g>
<g>
</g>
<g>
</g>
<g>
</g>
<g>
</g>
<g>
</g>
<g>
</g>
<g>
</g>
<g>
</g>
<g>
</g>
<g>
</g>
<g>
</g>
<g>
</g>
</svg>
