<?xml version="1.0" encoding="iso-8859-1"?>
<!-- Generator: Adobe Illustrator 19.0.0, SVG Export Plug-In . SVG Version: 6.00 Build 0)  -->
<svg version="1.1" id="Layer_1" xmlns="http://www.w3.org/2000/svg" xmlns:xlink="http://www.w3.org/1999/xlink" x="0px" y="0px"
	 viewBox="0 0 295.238 295.238" style="enable-background:new 0 0 295.238 295.238;" xml:space="preserve">
<g id="business_2">
	<g>
		<g>
			<path d="M295.238,80.952h-123.81v26.919c-15.667-4.067-31.952-4.067-47.619,0V0H0v104.762h74.748l22.114,14.743
				c-27.61,17.39-44.481,47.548-44.481,80.495c0,52.514,42.724,95.238,95.238,95.238c52.514,0,95.238-42.724,95.238-95.238
				c0-4.729-0.386-9.514-1.114-14.286h53.495V80.952z M123.81,117.776c3.057-0.886,6.138-1.633,9.238-2.176
				c-2.848,2.738-5.995,6.005-9.238,9.824V117.776z M77.633,95.238H9.524V9.524h104.762v110.148L77.633,95.238z M105.657,125.367
				l11.943,7.967c-4.829,6.643-9.524,14.429-13.362,23.319c-11.376-3-19.39-6.648-24.224-9.286
				C86.9,138.552,95.557,131.052,105.657,125.367z M74.519,155.248c5.224,2.967,13.905,7.062,26.3,10.405
				c-2.981,8.937-4.995,18.809-5.462,29.585H62.071C62.866,180.838,67.214,167.152,74.519,155.248z M62.148,204.763h33.209v-0.001
				c0.467,10.776,2.481,20.648,5.457,29.586c-12.314,3.324-20.957,7.386-26.195,10.348
				C67.395,232.939,62.952,219.348,62.148,204.763z M80.067,252.571c4.819-2.643,12.795-6.276,24.157-9.262
				c8.062,18.705,19.938,32.538,28.8,41.062C111.605,280.681,92.914,269.043,80.067,252.571z M142.857,280.405
				c-7.938-7.195-20.438-20.614-28.952-39.276c8.266-1.577,17.924-2.672,28.952-2.929V280.405z M142.857,228.676
				c-12.486,0.276-23.319,1.586-32.543,3.452c-2.885-8.28-4.819-17.418-5.309-27.366h37.852V228.676z M142.857,195.238h-37.852
				c0.49-9.948,2.424-19.086,5.31-27.367c9.223,1.862,20.056,3.172,32.542,3.453V195.238z M142.857,161.8
				c-11.01-0.262-20.662-1.367-28.938-2.952c8.51-18.653,21.005-32.058,28.938-39.253V161.8z M171.429,117.776v7.805
				c-3.286-3.886-6.471-7.229-9.338-10C165.229,116.124,168.339,116.881,171.429,117.776z M152.381,119.553
				c5.186,4.676,12.333,11.976,19.048,21.671v19.086c-6.2,0.795-12.562,1.262-19.048,1.419V119.553z M152.381,171.343
				c6.467-0.148,12.838-0.595,19.048-1.348v25.243h-19.048V171.343z M152.381,204.763h19.048v13.662l18.748-12.495
				c-0.587,9.494-2.482,18.241-5.253,26.199c-9.224-1.862-20.057-3.171-32.543-3.452V204.763z M152.381,280.405V238.2
				c11.01,0.262,20.662,1.367,28.938,2.952C172.81,259.805,160.314,273.21,152.381,280.405z M162.21,284.376
				c8.857-8.524,20.724-22.343,28.786-41.029c11.324,2.986,19.314,6.614,24.157,9.248
				C202.305,269.057,183.624,280.681,162.21,284.376z M220.62,244.695c-5.233-2.962-13.881-7.024-26.195-10.348
				c2.975-8.937,4.989-18.809,5.456-29.585h33.21C232.286,219.343,227.843,232.938,220.62,244.695z M206.205,195.238l14.286-9.524
				H232c0.538,3.181,0.895,6.353,1.076,9.524H206.205z M285.714,176.19h-68.11l-36.652,24.433V90.476h104.762V176.19z"/>
			<rect x="19.048" y="19.048" width="85.714" height="9.524"/>
			<rect x="19.048" y="38.095" width="85.714" height="9.524"/>
			<rect x="19.048" y="57.143" width="85.714" height="9.524"/>
			<rect x="19.048" y="76.19" width="66.667" height="9.524"/>
			<rect x="95.238" y="76.19" width="9.524" height="9.524"/>
			<rect x="190.476" y="100" width="85.714" height="9.524"/>
			<rect x="190.476" y="119.048" width="85.714" height="9.524"/>
			<rect x="190.476" y="138.095" width="85.714" height="9.524"/>
			<rect x="247.619" y="157.143" width="9.524" height="9.524"/>
			<rect x="190.476" y="157.143" width="47.619" height="9.524"/>
			<rect x="266.667" y="157.143" width="9.524" height="9.524"/>
		</g>
	</g>
</g>
<g>
</g>
<g>
</g>
<g>
</g>
<g>
</g>
<g>
</g>
<g>
</g>
<g>
</g>
<g>
</g>
<g>
</g>
<g>
</g>
<g>
</g>
<g>
</g>
<g>
</g>
<g>
</g>
<g>
</g>
</svg>
