<svg width="103" height="115" viewBox="0 0 103 115" fill="none" xmlns="http://www.w3.org/2000/svg">
<path opacity="0.4" fill-rule="evenodd" clip-rule="evenodd" d="M34.0641 18.0071H69.1285V9.8429H34.0641V18.0071ZM26.0959 10.1781V10.2187C23.3587 10.4677 20.6509 11.0113 18.0166 11.8292V11.7987C17.9383 11.8317 17.8645 11.857 17.7938 11.8813C17.7009 11.9133 17.6131 11.9434 17.5269 11.9867C17.3164 12.0375 17.1107 12.1137 16.9148 12.2102C16.337 12.3982 15.7593 12.6217 15.2157 12.8504C15.0713 12.9062 14.9268 12.971 14.7824 13.0358L14.7824 13.0358C14.6379 13.1006 14.4935 13.1653 14.349 13.2212C14.1507 13.3152 13.9439 13.4181 13.737 13.521L13.737 13.521L13.7369 13.521C13.5301 13.6239 13.3232 13.7267 13.1249 13.8207L12.1456 14.3846C11.9645 14.477 11.7969 14.5853 11.6259 14.6958L11.6258 14.6958C11.524 14.7616 11.421 14.8282 11.3132 14.8927C9.83928 15.8427 8.47313 16.9553 7.2392 18.2203L7.16575 18.2965C7.00369 18.4854 6.84231 18.6687 6.68311 18.8496L6.6831 18.8496C6.41421 19.155 6.15156 19.4533 5.90243 19.7597L5.82898 19.8308C1.82358 25.3582 -0.184024 32.171 0.163633 39.0752V41.2649H8.07162V39.0549C8.07162 29.4327 11.1369 23.4429 17.9578 20.3744C20.5628 19.272 23.3147 18.5912 26.1155 18.3422H26.189V10.2136L26.0959 10.1781ZM97.1568 19.7294L97.191 19.8005C101.192 25.3331 103.189 32.1509 102.837 39.0551V41.2651H94.9337V38.9993C95.1002 34.9248 94.2825 30.8707 92.5491 27.2077C90.8842 24.0731 88.2205 21.6396 85.0034 20.3187C82.4425 19.2163 79.7298 18.5304 76.9632 18.2866V10.1986C79.7004 10.4526 82.4082 10.9912 85.0475 11.8091V11.7685C85.1958 11.8358 85.309 11.8758 85.5032 11.9444L85.5372 11.9564C85.6273 11.9883 85.7114 12.0202 85.7945 12.0517C85.9101 12.0955 86.0239 12.1386 86.1492 12.18C86.6906 12.3576 87.1969 12.567 87.7179 12.7824L87.8092 12.8201C88.0496 12.9045 88.2761 13.0093 88.4801 13.1036C88.5462 13.1342 88.6099 13.1636 88.671 13.191C89.1019 13.3789 89.5426 13.6025 89.8951 13.7905C90.1303 13.9125 90.3593 14.043 90.5741 14.1655C90.6902 14.2317 90.8022 14.2955 90.9087 14.3544C91.0842 14.4513 91.2367 14.5549 91.3834 14.6546C91.4905 14.7274 91.5945 14.7981 91.702 14.8624C93.1807 15.8175 94.5616 16.9352 95.8102 18.1901L95.8543 18.2663C96.3145 18.7286 96.7503 19.2163 97.1568 19.7294Z" fill="#4DE68A"/>
<path d="M77.1772 4.50915V22.4992C77.1772 24.7659 75.338 26.6018 73.0672 26.6018C70.7964 26.6018 68.9572 24.7659 68.9572 22.4992V4.55018C68.9367 2.28348 70.7656 0.432169 73.0364 0.416784C75.3072 0.401399 77.1618 2.22194 77.1772 4.48864V4.50915Z" fill="#4DE68A"/>
<path d="M34.0325 4.57431V22.5198C34.0325 24.7964 32.1911 26.6422 29.9199 26.6422C27.6488 26.6422 25.8125 24.7964 25.8125 22.5198V4.57431C25.8125 2.29779 27.6488 0.457092 29.9199 0.457092C32.1911 0.457092 34.0325 2.29779 34.0325 4.57431Z" fill="#4DE68A"/>
<path fill-rule="evenodd" clip-rule="evenodd" d="M0.125 85.5287V41.2649H102.875V85.5287C102.875 104.831 92.0953 114.583 70.7319 114.583H32.2191C10.9047 114.583 0.125 104.831 0.125 85.5287ZM23.2965 65.8726C23.2965 68.5507 25.4034 70.7234 28.0003 70.7234C30.6463 70.7234 32.7532 68.5001 32.7042 65.8221C32.7042 63.144 30.5973 60.9712 28.0493 60.9712H28.0003C25.4034 60.9712 23.2965 63.1945 23.2965 65.8726ZM46.7771 65.8726C46.7771 68.5507 48.933 70.7234 51.5299 70.7234C54.1269 70.7234 56.2338 68.5507 56.2338 65.8221C56.2338 63.1945 54.1269 61.0218 51.5299 60.9712H51.4809C48.884 61.0218 46.7771 63.1945 46.7771 65.8726ZM74.9819 70.7234C72.385 70.7234 70.2781 68.5506 70.2781 65.8726C70.2781 63.1945 72.336 61.0217 74.9819 61.0217C77.5789 61.0217 79.6858 63.1945 79.6858 65.8726C79.6858 68.5506 77.5789 70.7234 74.9819 70.7234ZM74.9876 91.4406C72.3907 91.4406 70.2838 89.2678 70.2348 86.5897C70.2348 83.9117 72.3417 81.7389 74.9386 81.7389H74.9876C77.5845 81.7389 79.6915 83.9117 79.6915 86.5897C79.6915 89.2678 77.5845 91.4406 74.9876 91.4406ZM51.5299 91.4405C48.933 91.4405 46.7771 89.2677 46.7771 86.5897C46.7771 83.9116 48.884 81.7389 51.4809 81.6883H51.5299C54.1269 81.7389 56.1848 83.9116 56.2338 86.5392C56.2338 89.2677 54.1269 91.4405 51.5299 91.4405ZM28.0012 91.4405C25.4042 91.4405 23.2973 89.2677 23.2973 86.5897C23.2483 83.9116 25.3552 81.6883 28.0012 81.6883C30.5981 81.6883 32.705 83.8611 32.705 86.5392C32.705 89.2172 30.5981 91.4405 28.0012 91.4405Z" fill="#4DE68A"/>
</svg>
