<svg xmlns="http://www.w3.org/2000/svg" width="140" height="140" viewBox="0 0 140 140">
  <defs>
    <style>
      .cls-1 {
        fill: #333;
        fill-rule: evenodd;
      }
    </style>
  </defs>
  <path id="icon" class="cls-1" d="M106.37,65.726a4.274,4.274,0,1,0,8.449-1.3C109.148,27.457,76.035,25.721,75.7,25.706a4.28,4.28,0,0,0-.339,8.552c0.265,0.012,26.391,1.393,31.008,31.468h0Zm9.545-40.81C86.814-4.192,60.257,6.023,59.14,6.474a4.277,4.277,0,0,0,3.189,7.938c0.223-.088,22.4-8.6,47.542,16.557,23.163,23.173,16.363,46.7,16.07,47.674a4.275,4.275,0,1,0,8.158,2.562c0.37-1.187,8.778-29.318-18.184-56.288h0ZM105.905,125.7c-0.41.409-1.75,1.366-5.375,1.366-11.749,0-34.265-9.881-55.94-31.571C16.133,67,9.661,38.88,14.415,34.124c3.072-3.077,9.461-9.478,15.5-9.478,3.342,0,6.511,1.925,9.683,5.884,9.142,11.4,5.184,15.312-1.376,21.79L37,53.531A8.656,8.656,0,0,0,34.491,59.8c0,3.93,1.9,11.052,18.31,27.469S76.331,105.6,80.255,105.6h0a8.651,8.651,0,0,0,6.258-2.5l1.206-1.219c3.567-3.619,6.652-6.748,10.55-6.748,3.02,0,6.8,1.805,11.228,5.365,3.773,3.037,5.69,6.05,5.858,9.222,0.339,6.2-6.271,12.81-9.452,15.989h0Zm8.948-31.879c-6.07-4.884-11.5-7.253-16.582-7.253-7.475,0-12.343,4.94-16.637,9.3l-1.379,1.173c-1.314,0-6.737-1.137-21.41-15.82-17.124-17.128-15.8-21.63-15.8-21.639l1.18-1.169c6.757-6.672,16.013-15.811,2.04-33.234-4.833-6.028-10.336-9.088-16.351-9.088-9.581,0-17.369,7.8-21.55,11.982-12.362,12.384,5.734,49,30.179,73.473,23.521,23.539,48.077,34.079,61.984,34.079,5.016,0,8.86-1.306,11.423-3.872,4.052-4.055,12.487-12.489,11.942-22.505-0.3-5.656-3.348-10.848-9.042-15.425"/>
</svg>