<svg width="77" height="77" viewBox="0 0 77 77" fill="none" xmlns="http://www.w3.org/2000/svg">
<g id="car">
<path d="M38.4998 44.917H41.7081C45.2373 44.917 48.1248 42.0295 48.1248 38.5003V6.41699H19.2498C14.4373 6.41699 10.2344 9.07987 8.05273 12.994" stroke="#292D32" stroke-width="1.5" stroke-linecap="round" stroke-linejoin="round"/>
<path d="M6.41602 54.542C6.41602 59.8678 10.7152 64.167 16.041 64.167H19.2493C19.2493 60.6378 22.1368 57.7503 25.666 57.7503C29.1952 57.7503 32.0827 60.6378 32.0827 64.167H44.916C44.916 60.6378 47.8035 57.7503 51.3327 57.7503C54.8619 57.7503 57.7494 60.6378 57.7494 64.167H60.9577C66.2835 64.167 70.5827 59.8678 70.5827 54.542V44.917H60.9577C59.1931 44.917 57.7494 43.4732 57.7494 41.7087V32.0837C57.7494 30.3191 59.1931 28.8753 60.9577 28.8753H65.0964L59.6102 19.2824C58.4552 17.2933 56.3378 16.042 54.0278 16.042H48.1244V38.5003C48.1244 42.0295 45.2369 44.917 41.7077 44.917H38.4994" stroke="#292D32" stroke-width="1.5" stroke-linecap="round" stroke-linejoin="round"/>
<path d="M25.6667 70.5833C29.2105 70.5833 32.0833 67.7105 32.0833 64.1667C32.0833 60.6228 29.2105 57.75 25.6667 57.75C22.1228 57.75 19.25 60.6228 19.25 64.1667C19.25 67.7105 22.1228 70.5833 25.6667 70.5833Z" stroke="#292D32" stroke-width="1.5" stroke-linecap="round" stroke-linejoin="round"/>
<path d="M51.3327 70.5833C54.8765 70.5833 57.7493 67.7105 57.7493 64.1667C57.7493 60.6228 54.8765 57.75 51.3327 57.75C47.7889 57.75 44.916 60.6228 44.916 64.1667C44.916 67.7105 47.7889 70.5833 51.3327 70.5833Z" stroke="#292D32" stroke-width="1.5" stroke-linecap="round" stroke-linejoin="round"/>
<path d="M70.5833 38.5V44.9167H60.9583C59.1938 44.9167 57.75 43.4729 57.75 41.7083V32.0833C57.75 30.3188 59.1938 28.875 60.9583 28.875H65.097L70.5833 38.5Z" stroke="#292D32" stroke-width="1.5" stroke-linecap="round" stroke-linejoin="round"/>
<path d="M6.41602 25.667H25.666" stroke="#292D32" stroke-width="1.5" stroke-linecap="round" stroke-linejoin="round"/>
<path d="M6.41602 35.292H19.2493" stroke="#292D32" stroke-width="1.5" stroke-linecap="round" stroke-linejoin="round"/>
<path d="M6.41602 44.917H12.8327" stroke="#292D32" stroke-width="1.5" stroke-linecap="round" stroke-linejoin="round"/>
</g>
</svg>
