<svg width="79" height="79" viewBox="0 0 79 79" fill="none" xmlns="http://www.w3.org/2000/svg">
<path d="M55.3012 0.25H24.1012C22.8337 0.25 21.615 0.29875 20.445 0.445C7.33125 1.56625 0.75 9.3175 0.75 23.6012V43.1012C0.75 62.6012 8.55 66.4525 24.1012 66.4525H26.0513C27.1238 66.4525 28.5375 67.1837 29.1712 68.0125L35.0212 75.8125C37.605 79.2738 41.7975 79.2738 44.3812 75.8125L50.2312 68.0125C50.9625 67.0375 52.1325 66.4525 53.3512 66.4525H55.3012C69.585 66.4525 77.3363 59.92 78.4575 46.7575C78.6038 45.5875 78.6525 44.3688 78.6525 43.1012V23.6012C78.6525 8.05 70.8525 0.25 55.3012 0.25ZM22.6875 39.25C19.9575 39.25 17.8125 37.0563 17.8125 34.375C17.8125 31.6938 20.0063 29.5 22.6875 29.5C25.3687 29.5 27.5625 31.6938 27.5625 34.375C27.5625 37.0563 25.3687 39.25 22.6875 39.25ZM39.7012 39.25C36.9712 39.25 34.8262 37.0563 34.8262 34.375C34.8262 31.6938 37.02 29.5 39.7012 29.5C42.3825 29.5 44.5762 31.6938 44.5762 34.375C44.5762 37.0563 42.4312 39.25 39.7012 39.25ZM56.7637 39.25C54.0337 39.25 51.8887 37.0563 51.8887 34.375C51.8887 31.6938 54.0825 29.5 56.7637 29.5C59.445 29.5 61.6387 31.6938 61.6387 34.375C61.6387 37.0563 59.445 39.25 56.7637 39.25Z" fill="#4DE68A"/>
</svg>
