<svg version="1.1" xmlns="http://www.w3.org/2000/svg" xmlns:xlink="http://www.w3.org/1999/xlink" xml:space="preserve" width="330" height="330" style=""><rect id="backgroundrect" width="100%" height="100%" x="0" y="0" fill="none" stroke="none"/>
















<g class="currentLayer" style=""><title>Layer 1</title><g id="check" class="selected" fill-opacity="1" fill="#08e54d">
	<path d="M165,0C74.019,0,0,74.019,0,165s74.019,165,165,165s165-74.019,165-165S255.981,0,165,0z M165,300   c-74.44,0-135-60.561-135-135S90.56,30,165,30s135,60.561,135,135S239.439,300,165,300z" id="svg_1" fill="#08e54d" fill-opacity="1"/>
	<path d="M226.872,106.664l-84.854,84.853l-38.89-38.891c-5.857-5.857-15.355-5.858-21.213-0.001   c-5.858,5.858-5.858,15.355,0,21.213l49.496,49.498c2.813,2.813,6.628,4.394,10.606,4.394c0.001,0,0,0,0.001,0   c3.978,0,7.793-1.581,10.606-4.393l95.461-95.459c5.858-5.858,5.858-15.355,0-21.213   C242.227,100.807,232.73,100.806,226.872,106.664z" id="svg_2" fill="#08e54d" fill-opacity="1"/>
</g><g id="svg_3" class="selected" fill-opacity="1" fill="#08e54d">
</g><g id="svg_4" class="selected" fill-opacity="1" fill="#08e54d">
</g><g id="svg_5" class="selected" fill-opacity="1" fill="#08e54d">
</g><g id="svg_6" class="selected" fill-opacity="1" fill="#08e54d">
</g><g id="svg_7" class="selected" fill-opacity="1" fill="#08e54d">
</g><g id="svg_8" class="selected" fill-opacity="1" fill="#08e54d">
</g><g id="svg_9" class="selected" fill-opacity="1" fill="#08e54d">
</g><g id="svg_10" class="selected" fill-opacity="1" fill="#08e54d">
</g><g id="svg_11" class="selected" fill-opacity="1" fill="#08e54d">
</g><g id="svg_12" class="selected" fill-opacity="1" fill="#08e54d">
</g><g id="svg_13" class="selected" fill-opacity="1" fill="#08e54d">
</g><g id="svg_14" class="selected" fill-opacity="1" fill="#08e54d">
</g><g id="svg_15" class="selected" fill-opacity="1" fill="#08e54d">
</g><g id="svg_16" class="selected" fill-opacity="1" fill="#08e54d">
</g><g id="svg_17" class="selected" fill-opacity="1" fill="#08e54d">
</g></g></svg>