<svg width="40" height="40" viewBox="0 0 40 40" fill="none" xmlns="http://www.w3.org/2000/svg">
<path d="M14.1663 31.6667H13.333C6.66634 31.6667 3.33301 30 3.33301 21.6667V13.3333C3.33301 6.66667 6.66634 3.33333 13.333 3.33333H26.6663C33.333 3.33333 36.6663 6.66667 36.6663 13.3333V21.6667C36.6663 28.3333 33.333 31.6667 26.6663 31.6667H25.833C25.3163 31.6667 24.8163 31.9167 24.4997 32.3333L21.9997 35.6667C20.8997 37.1333 19.0997 37.1333 17.9997 35.6667L15.4997 32.3333C15.233 31.9667 14.6163 31.6667 14.1663 31.6667Z" stroke="#008B38" stroke-width="1.5" stroke-miterlimit="10" stroke-linecap="round" stroke-linejoin="round"/>
<path d="M11.667 13.3333H28.3337" stroke="#008B38" stroke-width="1.5" stroke-linecap="round" stroke-linejoin="round"/>
<path d="M11.667 21.6667H21.667" stroke="#008B38" stroke-width="1.5" stroke-linecap="round" stroke-linejoin="round"/>
</svg>
