<svg xmlns="http://www.w3.org/2000/svg" width="140" height="140" viewBox="0 0 140 140">
  <defs>
    <style>
      .cls-1 {
        fill: #333;
        fill-rule: evenodd;
      }
    </style>
  </defs>
  <path id="icon" class="cls-1" d="M124.42,21.874H15.579a11.177,11.177,0,0,0-11.2,10.867v74.514a11.177,11.177,0,0,0,11.2,10.869H124.42a11.177,11.177,0,0,0,11.2-10.869V32.741a11.176,11.176,0,0,0-11.2-10.867h0ZM15.579,31.188H124.42a1.49,1.49,0,0,1,1.6,1.553v3.725L70,70.62,13.978,36.466V32.741a1.49,1.49,0,0,1,1.6-1.553h0ZM124.42,108.809H15.579a1.49,1.49,0,0,1-1.6-1.554V47.333l53.461,32.6A3.529,3.529,0,0,0,70,80.555a6.209,6.209,0,0,0,2.561-.621l53.46-32.6v59.922a1.49,1.49,0,0,1-1.6,1.554h0Zm0,0"/>
</svg>