<svg width="203" height="203" viewBox="0 0 203 203" fill="none" xmlns="http://www.w3.org/2000/svg">
<path d="M101.5 171.281C91.7728 171.281 82.384 169.336 73.5874 165.445C70.3732 164.007 68.9353 160.285 70.2886 157.071C71.7266 153.857 75.4482 152.419 78.6624 153.772C85.852 156.902 93.5491 158.509 101.5 158.509C132.965 158.509 158.594 132.88 158.594 101.415C158.594 93.4643 156.987 85.7673 153.857 78.5777C152.419 75.3635 153.942 71.6418 157.156 70.2039C160.37 68.8506 164.092 70.2885 165.529 73.5027C169.42 82.2993 171.366 91.6881 171.366 101.415C171.281 139.985 139.985 171.281 101.5 171.281Z" fill="#292D32"/>
<path d="M55.6558 151.743C53.9642 151.743 52.3571 151.066 51.0883 149.797C38.57 136.687 31.7188 119.601 31.7188 101.5C31.7188 63.0146 63.0146 31.7188 101.5 31.7188C119.685 31.7188 136.856 38.6546 149.966 51.2575C152.504 53.7104 152.588 57.6858 150.135 60.2233C147.682 62.7608 143.707 62.8454 141.17 60.3925C130.427 50.0733 116.387 44.4062 101.5 44.4062C70.035 44.4062 44.4062 70.035 44.4062 101.5C44.4062 116.302 50.0733 130.343 60.3079 141C62.7608 143.538 62.6763 147.513 60.1388 149.966C58.87 151.15 57.2629 151.743 55.6558 151.743Z" fill="#292D32"/>
<path d="M101.5 40.1774C98.0321 40.1774 95.1562 37.3016 95.1562 33.8337V16.917C95.1562 13.4491 98.0321 10.5732 101.5 10.5732C104.968 10.5732 107.844 13.4491 107.844 16.917V33.8337C107.844 37.3016 104.968 40.1774 101.5 40.1774Z" fill="#292D32"/>
<path d="M33.8334 107.844H16.9167C13.4488 107.844 10.573 104.968 10.573 101.5C10.573 98.0321 13.4488 95.1562 16.9167 95.1562H33.8334C37.3013 95.1562 40.1772 98.0321 40.1772 101.5C40.1772 104.968 37.3013 107.844 33.8334 107.844Z" fill="#292D32"/>
<path d="M101.5 192.427C98.0321 192.427 95.1562 189.552 95.1562 186.084V169.167C95.1562 165.699 98.0321 162.823 101.5 162.823C104.968 162.823 107.844 165.699 107.844 169.167V186.084C107.844 189.552 104.968 192.427 101.5 192.427Z" fill="#292D32"/>
<path d="M186.083 107.844H169.167C165.699 107.844 162.823 104.968 162.823 101.5C162.823 98.0321 165.699 95.1562 169.167 95.1562H186.083C189.551 95.1562 192.427 98.0321 192.427 101.5C192.427 104.968 189.551 107.844 186.083 107.844Z" fill="#292D32"/>
<path d="M83.5683 125.775C81.9613 125.775 80.3542 125.183 79.0854 123.915C73.08 117.909 69.7812 109.958 69.7812 101.5C69.7812 83.9913 83.9913 69.7812 101.5 69.7812C109.958 69.7812 117.909 73.08 123.915 79.0854C126.367 81.5383 126.367 85.5983 123.915 88.0512L88.0512 123.915C86.7825 125.183 85.1754 125.775 83.5683 125.775ZM101.5 82.4688C91.0117 82.4688 82.4688 91.0117 82.4688 101.5C82.4688 104.376 83.1454 107.167 84.3296 109.705L109.705 84.3296C107.167 83.1454 104.376 82.4688 101.5 82.4688Z" fill="#292D32"/>
<path d="M16.9166 192.427C15.3095 192.427 13.7024 191.835 12.4337 190.566C9.98076 188.113 9.98076 184.053 12.4337 181.6L181.6 12.4334C184.053 9.98052 188.113 9.98052 190.566 12.4334C193.019 14.8864 193.019 18.9464 190.566 21.3993L21.3995 190.566C20.1308 191.835 18.5237 192.427 16.9166 192.427Z" fill="#292D32"/>
</svg>
