<svg width="39" height="40" viewBox="0 0 39 40" fill="none" xmlns="http://www.w3.org/2000/svg">
<path fill-rule="evenodd" clip-rule="evenodd" d="M35.6816 11.3191C37.0217 12.3572 37.8438 13.8994 37.9838 15.5775L38.0038 15.9796V32.1992C38.0038 36.3796 34.7015 39.78 30.5631 40H26.5827C24.6805 39.962 23.1423 38.4818 23.0023 36.6217L22.9823 36.3396V30.6211C22.9823 29.999 22.5203 29.4809 21.9022 29.3789L21.7222 29.3589H16.3796C15.7416 29.3789 15.2215 29.839 15.1415 30.439L15.1215 30.6211V36.3216C15.1215 36.4396 15.0995 36.5797 15.0815 36.6797L15.0615 36.7217L15.0395 36.8597C14.8015 38.5619 13.4013 39.86 11.6612 39.982L11.4011 40H7.82079C3.64037 40 0.220022 36.7217 0 32.5993V15.9796C0.0180018 14.2774 0.760076 12.6973 2.0002 11.5971L14.4615 1.57614C17.0017 -0.442068 20.5621 -0.522076 23.1803 1.33611L23.5024 1.57614L35.6816 11.3191ZM35.2017 32.5194L35.2237 32.1994V15.9978C35.2017 15.1397 34.8437 14.3376 34.2236 13.7395L33.9636 13.5175L21.7623 3.75653C20.2422 2.5364 18.082 2.4784 16.4818 3.5365L16.1798 3.75653L4.01856 13.5595C3.32049 14.0776 2.90045 14.8576 2.80044 15.6777L2.77844 15.9978V32.1994C2.77844 34.8597 4.85865 37.0399 7.50091 37.1999H11.4013C11.8413 37.1999 12.2214 36.9019 12.2794 36.4818L12.3214 36.1218L12.3414 36.0198V30.6212C12.3414 28.481 13.9816 26.7408 16.0818 26.5788H21.7223C23.8606 26.5788 25.6007 28.221 25.7627 30.3212V36.3398C25.7627 36.7598 26.0628 37.1219 26.4628 37.1999H30.1812C32.8615 37.1999 35.0417 35.1417 35.2017 32.5194Z" fill="#200E32"/>
</svg>
