<svg xmlns="http://www.w3.org/2000/svg" width="140" height="140" viewBox="0 0 140 140">
  <defs>
    <style>
      .cls-1 {
        fill: #333;
        fill-rule: evenodd;
      }
    </style>
  </defs>
  <path id="icon" class="cls-1" d="M126.822,62.589C126.236,31.7,101.976,6.749,72.187,6.749H67.812c-29.789,0-54.049,24.952-54.635,55.836a17.191,17.191,0,0,0-8.8,14.9v8.636a17.5,17.5,0,0,0,35,0V77.487A17.4,17.4,0,0,0,22.041,60.23C23.752,35.207,43.6,15.385,67.812,15.385h4.375c24.216,0,44.061,19.822,45.772,44.845a17.4,17.4,0,0,0-17.334,17.257v8.636a17.267,17.267,0,0,0,12.494,16.466,46.2,46.2,0,0,1-26.24,16.8,10.8,10.8,0,1,0-1.037,9.094,55.019,55.019,0,0,0,38.04-26.125,17.248,17.248,0,0,0,11.743-16.233V77.487a17.177,17.177,0,0,0-8.8-14.9h0Zm-96.2,14.9v8.636a8.751,8.751,0,0,1-17.5,0V77.487a8.751,8.751,0,0,1,17.5,0h0Zm96.25,8.636a8.68,8.68,0,0,1-8.357,8.6l-0.341-.159c-0.031.069-.079,0.126-0.109,0.189a8.694,8.694,0,0,1-8.694-8.628V77.487a8.751,8.751,0,0,1,17.5,0v8.636Zm0,0"/>
</svg>