<svg width="124" height="124" viewBox="0 0 124 124" fill="none" xmlns="http://www.w3.org/2000/svg">
<path d="M61.9999 73.2118C50.9949 73.2118 42.0049 64.2734 42.0049 53.2168C42.0049 42.1601 50.9949 33.2734 61.9999 33.2734C73.0049 33.2734 81.9949 42.2118 81.9949 53.2684C81.9949 64.3251 73.0049 73.2118 61.9999 73.2118ZM61.9999 41.0234C55.2832 41.0234 49.7549 46.5001 49.7549 53.2684C49.7549 60.0368 55.2315 65.5134 61.9999 65.5134C68.7682 65.5134 74.2449 60.0368 74.2449 53.2684C74.2449 46.5001 68.7165 41.0234 61.9999 41.0234Z" fill="#008B38"/>
<path d="M62.0002 117.594C54.3535 117.594 46.6552 114.701 40.6618 108.966C25.4202 94.2923 8.57684 70.8873 14.9318 43.039C20.6668 17.774 42.7285 6.45898 62.0002 6.45898C62.0002 6.45898 62.0002 6.45898 62.0518 6.45898C81.3235 6.45898 103.385 17.774 109.12 43.0907C115.424 70.939 98.5802 94.2923 83.3385 108.966C77.3452 114.701 69.6468 117.594 62.0002 117.594ZM62.0002 14.209C46.9652 14.209 27.6418 22.2173 22.5268 44.744C16.9468 69.079 32.2402 90.0557 46.0868 103.334C55.0252 111.962 69.0268 111.962 77.9652 103.334C91.7602 90.0557 107.054 69.079 101.577 44.744C96.4102 22.2173 77.0352 14.209 62.0002 14.209Z" fill="#008B38"/>
</svg>
