<svg width="29" height="29" viewBox="0 0 29 29" fill="none" xmlns="http://www.w3.org/2000/svg">
<path d="M12.5913 16.6146C12.4342 16.6146 12.2771 16.5783 12.1321 16.4938C10.7063 15.66 9.82422 14.1133 9.82422 12.47C9.82422 9.89626 11.9146 7.79376 14.5005 7.79376C16.1559 7.79376 17.7026 8.67585 18.5363 10.1138C18.7901 10.5488 18.6451 11.1046 18.2101 11.3583C17.7751 11.6121 17.2192 11.4671 16.9655 11.0321C16.458 10.1379 15.5155 9.59418 14.5005 9.59418C12.9296 9.59418 11.6367 10.875 11.6367 12.4579C11.6367 13.4729 12.1805 14.4154 13.0505 14.9229C13.4855 15.1767 13.6305 15.7325 13.3767 16.1675C13.2076 16.4454 12.9055 16.6146 12.5913 16.6146Z" fill="#ED0006"/>
<path d="M7.23782 22.4267C6.9599 22.4267 6.68198 22.2938 6.50073 22.0521C3.60073 18.0767 2.58573 14.0409 3.49198 10.0534C4.43448 5.90877 7.47948 2.83961 11.6361 1.83669C15.9861 0.785441 20.5536 2.19919 23.2482 5.42544C23.5745 5.81211 23.5141 6.38003 23.1395 6.70627C22.7528 7.03253 22.1849 6.97211 21.8586 6.58544C19.5991 3.87877 15.7566 2.70669 12.0591 3.58877C8.53073 4.43461 6.05365 6.93586 5.25615 10.44C4.47073 13.8959 5.37698 17.4363 7.96282 20.9646C8.25282 21.3634 8.16823 21.9313 7.76948 22.2334C7.6124 22.3663 7.41907 22.4267 7.23782 22.4267Z" fill="#ED0006"/>
<path d="M14.5005 27.5017C12.7122 27.5017 10.9117 26.825 9.51007 25.4838C9.14757 25.1333 9.13549 24.5654 9.4859 24.2029C9.83632 23.8404 10.4042 23.8283 10.7667 24.1788C12.8572 26.1967 16.1317 26.1967 18.2222 24.1788C21.4484 21.0733 25.0251 16.1675 23.7442 10.4763C23.6355 9.99293 23.9376 9.49751 24.433 9.38876C24.9163 9.28001 25.4117 9.58209 25.5205 10.0775C26.9947 16.5904 23.0555 22.0521 19.4909 25.4838C18.0892 26.825 16.2888 27.5017 14.5005 27.5017Z" fill="#ED0006"/>
<path d="M2.4169 27.4896C2.18732 27.4896 1.95773 27.405 1.77648 27.2237C1.42607 26.8733 1.42607 26.2933 1.77648 25.9429L25.9431 1.77624C26.2936 1.42582 26.8736 1.42582 27.224 1.77624C27.5744 2.12666 27.5744 2.70666 27.224 3.05707L3.05732 27.2237C2.87607 27.405 2.64648 27.4896 2.4169 27.4896Z" fill="#ED0006"/>
</svg>
