<svg width="12" height="47" viewBox="0 0 12 47" fill="none" xmlns="http://www.w3.org/2000/svg">
<path fill-rule="evenodd" clip-rule="evenodd" d="M6 0C2.68629 0 0 2.68629 0 6C0 9.31371 2.68629 12 6 12C9.31371 12 12 9.31371 12 6C12 2.68629 9.31371 0 6 0ZM3.27273 6C3.27273 4.49377 4.49377 3.27273 6 3.27273C7.50623 3.27273 8.72727 4.49377 8.72727 6C8.72727 7.50623 7.50623 8.72727 6 8.72727C4.49377 8.72727 3.27273 7.50623 3.27273 6Z" fill="#2D264B"/>
<path fill-rule="evenodd" clip-rule="evenodd" d="M6 17.4545C2.68629 17.4545 0 20.1408 0 23.4545C0 26.7683 2.68629 29.4545 6 29.4545C9.31371 29.4545 12 26.7683 12 23.4545C12 20.1408 9.31371 17.4545 6 17.4545ZM3.27273 23.4545C3.27273 21.9483 4.49377 20.7273 6 20.7273C7.50623 20.7273 8.72727 21.9483 8.72727 23.4545C8.72727 24.9608 7.50623 26.1818 6 26.1818C4.49377 26.1818 3.27273 24.9608 3.27273 23.4545Z" fill="#2D264B"/>
<path fill-rule="evenodd" clip-rule="evenodd" d="M6 34.9091C2.68629 34.9091 0 37.5954 0 40.9091C0 44.2228 2.68629 46.9091 6 46.9091C9.31371 46.9091 12 44.2228 12 40.9091C12 37.5954 9.31371 34.9091 6 34.9091ZM3.27273 40.9091C3.27273 39.4029 4.49377 38.1818 6 38.1818C7.50623 38.1818 8.72727 39.4029 8.72727 40.9091C8.72727 42.4153 7.50623 43.6364 6 43.6364C4.49377 43.6364 3.27273 42.4153 3.27273 40.9091Z" fill="#2D264B"/>
</svg>
