<svg version="1.1" xmlns="http://www.w3.org/2000/svg" xmlns:xlink="http://www.w3.org/1999/xlink" style="enable-background:new 0 0 60 60;" xml:space="preserve" width="60" height="60"><rect id="backgroundrect" width="100%" height="100%" x="0" y="0" fill="none" stroke="none"/>
















<g class="currentLayer" style=""><title>Layer 1</title><g id="svg_1" class="" fill="#6d6d6d" fill-opacity="1">
	<path d="M30,16c4.411,0,8-3.589,8-8s-3.589-8-8-8s-8,3.589-8,8S25.589,16,30,16z" id="svg_2" fill="#6d6d6d" fill-opacity="1"/>
	<path d="M30,44c-4.411,0-8,3.589-8,8s3.589,8,8,8s8-3.589,8-8S34.411,44,30,44z" id="svg_3" fill="#6d6d6d" fill-opacity="1"/>
	<path d="M30,22c-4.411,0-8,3.589-8,8s3.589,8,8,8s8-3.589,8-8S34.411,22,30,22z" id="svg_4" fill="#6d6d6d" fill-opacity="1"/>
</g><g id="svg_5">
</g><g id="svg_6">
</g><g id="svg_7">
</g><g id="svg_8">
</g><g id="svg_9">
</g><g id="svg_10">
</g><g id="svg_11">
</g><g id="svg_12">
</g><g id="svg_13">
</g><g id="svg_14">
</g><g id="svg_15">
</g><g id="svg_16">
</g><g id="svg_17">
</g><g id="svg_18">
</g><g id="svg_19">
</g></g></svg>