<svg width="137" height="137" viewBox="0 0 137 137" fill="none" xmlns="http://www.w3.org/2000/svg">
<path opacity="0.4" d="M112.453 57.6478C110.396 57.648 108.721 55.9648 108.694 53.8703V48.3572C108.761 43.6774 106.996 39.1631 103.79 35.8108C100.583 32.4586 96.1987 30.5442 91.6041 30.4905H87.5947C85.5188 30.4905 83.8359 28.7764 83.8359 26.6619C83.8359 24.5474 85.5188 22.8333 87.5947 22.8333H91.6041C105.326 23.001 116.363 34.3795 116.362 48.3572V53.8193C116.389 54.8252 116.016 55.7994 115.326 56.5205C114.637 57.2416 113.691 57.6482 112.703 57.6478H112.453Z" fill="#4DE68A"/>
<path opacity="0.4" d="M24.7489 57.6478C23.7566 57.6615 22.8004 57.2695 22.094 56.5596C21.3876 55.8497 20.99 54.8811 20.9901 53.8703V48.3572C20.9097 41.6161 23.4826 35.123 28.1343 30.3273C32.7861 25.5317 39.1293 22.8328 45.7479 22.8333H49.8575C51.9335 22.8333 53.6163 24.5474 53.6163 26.6619C53.6163 28.7764 51.9335 30.4905 49.8575 30.4905H45.7981C41.1644 30.476 36.7201 32.3621 33.4672 35.7234C30.2144 39.0846 28.4268 43.6381 28.5077 48.3572V53.8703C28.4802 55.9648 26.8054 57.648 24.7489 57.6478Z" fill="#4DE68A"/>
<path d="M116.215 80.262V94.6064C116.054 108.406 105.154 119.576 91.607 119.824H87.5476C86.1103 119.994 84.705 119.308 83.9338 118.061C83.1627 116.814 83.1627 115.227 83.9338 113.98C84.705 112.733 86.1103 112.048 87.5476 112.218H91.607C101.164 112.19 108.897 104.29 108.897 94.5553V80.262H116.215Z" fill="#4DE68A"/>
<path d="M53.6184 116.046C53.5914 118.149 51.9242 119.847 49.8596 119.875H45.75C32.0281 119.707 20.9912 108.329 20.9922 94.3511V80.262H28.5097V94.6064C28.5096 104.321 36.2123 112.213 45.75 112.269H49.8596C50.8519 112.255 51.8081 112.647 52.5145 113.357C53.2209 114.067 53.6185 115.036 53.6184 116.046Z" fill="#4DE68A"/>
<path d="M125.585 76.4334C125.585 78.5479 123.902 80.262 121.826 80.262H15.1767C13.1008 80.262 11.418 78.5479 11.418 76.4334C11.418 74.3189 13.1008 72.6048 15.1767 72.6048H121.675C122.698 72.5631 123.693 72.948 124.431 73.6706C125.169 74.3931 125.585 75.3909 125.585 76.4334Z" fill="#4DE68A"/>
<path opacity="0.4" d="M94.6126 63.3652V56.78C94.6126 53.5984 93.3718 50.5471 91.163 48.2974C88.9543 46.0477 85.9587 44.7838 82.8351 44.7838H54.1681C47.6636 44.7838 42.3906 50.1547 42.3906 56.78V63.3652C42.4165 64.1434 43.0299 64.7681 43.7939 64.7945H93.2093C93.9733 64.7681 94.5867 64.1434 94.6126 63.3652Z" fill="#4DE68A"/>
<path d="M94.6126 80.262V85.9793C94.6126 92.6046 89.3396 97.9755 82.8351 97.9755H54.1681C47.6636 97.9755 42.3906 92.6046 42.3906 85.9793V80.262H94.6126Z" fill="#4DE68A"/>
</svg>
