<svg width="51" height="49" viewBox="0 0 51 49" fill="none" xmlns="http://www.w3.org/2000/svg">
<path d="M40.5429 30.3969C39.8846 31.0348 39.5821 31.9575 39.7321 32.8623L41.9916 45.3673C42.1822 46.4272 41.7349 47.4997 40.8479 48.1123C39.9786 48.7477 38.8222 48.824 37.8741 48.3156L26.6171 42.4444C26.2257 42.236 25.791 42.1241 25.3462 42.1114H24.6575C24.4185 42.147 24.1847 42.2232 23.9712 42.3402L12.7116 48.2394C12.155 48.519 11.5247 48.6181 10.907 48.519C9.40237 48.2343 8.39841 46.8008 8.64496 45.2885L10.907 32.7835C11.057 31.871 10.7545 30.9433 10.0962 30.2952L0.91829 21.3994C0.150707 20.6547 -0.116168 19.5363 0.234582 18.5273C0.575165 17.5208 1.44441 16.7862 2.49412 16.621L15.1262 14.7885C16.087 14.6894 16.9308 14.1048 17.3629 13.2406L22.9291 1.82854C23.0613 1.57437 23.2316 1.34054 23.4375 1.14229L23.6662 0.96437C23.7857 0.832203 23.9229 0.722912 24.0754 0.633953L24.3525 0.532287L24.7845 0.35437H25.8546C26.8102 0.453495 27.6515 1.02537 28.0912 1.87937L33.7312 13.2406C34.1379 14.0717 34.9283 14.6487 35.8408 14.7885L48.4729 16.621C49.5404 16.7735 50.4325 17.5106 50.7858 18.5273C51.1187 19.5465 50.8315 20.6648 50.0487 21.3994L40.5429 30.3969Z" fill="#FFC700"/>
</svg>
