<svg width="47" height="45" viewBox="0 0 47 45" fill="none" xmlns="http://www.w3.org/2000/svg">
<path fill-rule="evenodd" clip-rule="evenodd" d="M26.2146 2.44252L30.707 11.5694C31.1473 12.4654 31.9971 13.0867 32.9826 13.2305L43.0323 14.7015C45.5153 15.0661 46.5033 18.1264 44.7064 19.8799L37.4392 26.9811C36.725 27.6794 36.3999 28.6832 36.5689 29.6691L38.2839 39.6945C38.7063 42.1746 36.1107 44.0667 33.8914 42.8934L24.9091 38.1567C24.0286 37.692 22.974 37.692 22.0908 38.1567L13.1086 42.8934C10.8893 44.0667 8.29372 42.1746 8.71864 39.6945L10.4311 29.6691C10.6001 28.6832 10.275 27.6794 9.5608 26.9811L2.29363 19.8799C0.496675 18.1264 1.48474 15.0661 3.96772 14.7015L14.0174 13.2305C15.0029 13.0867 15.8553 12.4654 16.2955 11.5694L20.7854 2.44252C21.8963 0.185828 25.1037 0.185828 26.2146 2.44252Z" stroke="#FFC700" stroke-width="1.5" stroke-linecap="round" stroke-linejoin="round"/>
</svg>
