<svg width="31" height="29" viewBox="0 0 31 29" fill="none" xmlns="http://www.w3.org/2000/svg">
<path fill-rule="evenodd" clip-rule="evenodd" d="M17.2024 2.43956L20.0197 8.0678C20.2958 8.62033 20.8287 9.00347 21.4467 9.09212L27.7491 9.99929C29.3062 10.2241 29.9258 12.1113 28.7989 13.1926L24.2415 17.5717C23.7937 18.0023 23.5898 18.6213 23.6957 19.2293L24.7713 25.4116C25.0361 26.941 23.4084 28.1078 22.0166 27.3843L16.3837 24.4633C15.8315 24.1768 15.1701 24.1768 14.6163 24.4633L8.98338 27.3843C7.59161 28.1078 5.96386 26.941 6.23033 25.4116L7.30426 19.2293C7.41021 18.6213 7.20634 18.0023 6.75847 17.5717L2.20109 13.1926C1.07419 12.1113 1.69382 10.2241 3.25094 9.99929L9.55325 9.09212C10.1713 9.00347 10.7058 8.62033 10.982 8.0678L13.7976 2.43956C14.4943 1.04794 16.5057 1.04794 17.2024 2.43956Z" stroke="black" stroke-width="1.5" stroke-linecap="round" stroke-linejoin="round"/>
</svg>
