<svg width="102" height="102" viewBox="0 0 102 102" fill="none" xmlns="http://www.w3.org/2000/svg">
<path d="M72.3005 0.166687H29.7021C11.1988 0.166687 0.167969 11.1975 0.167969 29.7009V72.2484C0.167969 90.8025 11.1988 101.833 29.7021 101.833H72.2496C90.753 101.833 101.784 90.8025 101.784 72.2992V29.7009C101.835 11.1975 90.8038 0.166687 72.3005 0.166687ZM38.8013 72.35C38.8013 77.3825 34.6838 81.5 29.6513 81.5C24.6188 81.5 20.5013 77.3825 20.5013 72.35C20.5013 67.3175 24.6188 63.2 29.6513 63.2H33.718C36.5138 63.2 38.8013 65.4875 38.8013 68.2833V72.35ZM38.8013 33.7167C38.8013 36.5125 36.5138 38.8 33.718 38.8H29.6513C24.6188 38.8 20.5013 34.6825 20.5013 29.65C20.5013 24.6175 24.6188 20.5 29.6513 20.5C34.6838 20.5 38.8013 24.6175 38.8013 29.65V33.7167ZM61.9305 57.3542C61.9305 59.845 59.8971 61.9292 57.3555 61.9292H44.5963C42.1055 61.9292 40.0213 59.8958 40.0213 57.3542V44.595C40.0213 42.1042 42.0546 40.02 44.5963 40.02H57.3555C59.8463 40.02 61.9305 42.0533 61.9305 44.595V57.3542ZM72.3513 81.5C67.3188 81.5 63.2013 77.3825 63.2013 72.35V68.2833C63.2013 65.4875 65.4888 63.2 68.2846 63.2H72.3513C77.3838 63.2 81.5013 67.3175 81.5013 72.35C81.5013 77.3825 77.3838 81.5 72.3513 81.5ZM72.3513 38.8H68.2846C65.4888 38.8 63.2013 36.5125 63.2013 33.7167V29.65C63.2013 24.6175 67.3188 20.5 72.3513 20.5C77.3838 20.5 81.5013 24.6175 81.5013 29.65C81.5013 34.6825 77.3838 38.8 72.3513 38.8Z" fill="#4DE68A"/>
</svg>
