<svg width="24" height="24" xmlns="http://www.w3.org/2000/svg"><rect id="backgroundrect" width="100%" height="100%" x="0" y="0" fill="none" stroke="none"/><g class="currentLayer" style=""><title>Layer 1</title><path d="m11.275362312793732,0 c-6.627,0 -12,5.373 -12,12 s5.373,12 12,12 s12,-5.373 12,-12 c0,-6.627 -5.373,-12 -12,-12 zm5.894,8.221 l-1.97,9.28 c-0.14500000000000002,0.6580000000000001 -0.537,0.8180000000000001 -1.084,0.508 l-3,-2.21 l-1.4460000000000002,1.3940000000000001 c-0.14,0.18000000000000002 -0.35700000000000004,0.29500000000000004 -0.6000000000000001,0.29500000000000004 c-0.0020000000000000005,0 -0.003000000000000001,0 -0.005000000000000001,0 l0.21300000000000002,-3.054 l5.5600000000000005,-5.022 c0.24000000000000002,-0.21300000000000002 -0.05400000000000001,-0.3340000000000001 -0.37300000000000005,-0.12100000000000001 l-6.869,4.3260000000000005 l-2.96,-0.924 c-0.6400000000000001,-0.203 -0.6580000000000001,-0.6400000000000001 0.135,-0.9540000000000001 l11.566,-4.458 c0.538,-0.19600000000000004 1.006,0.128 0.8320000000000001,0.9410000000000001 z" id="svg_1" class="selected" fill="#ffffff" fill-opacity="1"/></g></svg>