<svg width="96" height="96" viewBox="0 0 96 96" fill="none" xmlns="http://www.w3.org/2000/svg">
<path d="M86.24 42.96L80.8 36.64C79.76 35.44 78.92 33.2 78.92 31.6V24.8C78.92 20.56 75.44 17.08 71.2 17.08H64.4C62.84 17.08 60.56 16.24 59.36 15.2L53.04 9.76001C50.28 7.40001 45.76 7.40001 42.96 9.76001L36.68 15.24C35.48 16.24 33.2 17.08 31.64 17.08H24.72C20.48 17.08 17 20.56 17 24.8V31.64C17 33.2 16.16 35.44 15.16 36.64L9.76002 43C7.44002 45.76 7.44002 50.24 9.76002 53L15.16 59.36C16.16 60.56 17 62.8 17 64.36V71.2C17 75.44 20.48 78.92 24.72 78.92H31.64C33.2 78.92 35.48 79.76 36.68 80.8L43 86.24C45.76 88.6 50.28 88.6 53.08 86.24L59.4 80.8C60.6 79.76 62.84 78.92 64.44 78.92H71.24C75.48 78.92 78.96 75.44 78.96 71.2V64.4C78.96 62.84 79.8 60.56 80.84 59.36L86.28 53.04C88.6 50.28 88.6 45.72 86.24 42.96ZM64.64 40.44L45.32 59.76C44.76 60.32 44 60.64 43.2 60.64C42.4 60.64 41.64 60.32 41.08 59.76L31.4 50.08C30.24 48.92 30.24 47 31.4 45.84C32.56 44.68 34.48 44.68 35.64 45.84L43.2 53.4L60.4 36.2C61.56 35.04 63.48 35.04 64.64 36.2C65.8 37.36 65.8 39.28 64.64 40.44Z" fill="#4DE68A"/>
<ellipse cx="49" cy="48.5" rx="27" ry="19.5" fill="#4DE68A"/>
</svg>
