<svg width="32" height="32" viewBox="0 0 32 32" fill="none" xmlns="http://www.w3.org/2000/svg">
<path d="M27.9999 8.97332C27.9732 8.97332 27.9332 8.97332 27.8932 8.97332C20.8399 8.26665 13.7999 7.99999 6.82655 8.70665L4.10655 8.97332C3.54655 9.02665 3.05322 8.62665 2.99989 8.06665C2.94655 7.50666 3.34655 7.02665 3.89322 6.97332L6.61322 6.70666C13.7066 5.98666 20.8932 6.26666 28.0932 6.97332C28.6399 7.02665 29.0399 7.51999 28.9866 8.06665C28.9466 8.58665 28.5066 8.97332 27.9999 8.97332Z" fill="white"/>
<path d="M11.333 7.62669C11.2797 7.62669 11.2264 7.62669 11.1597 7.61335C10.6264 7.52002 10.253 7.00002 10.3464 6.46669L10.6397 4.72002C10.853 3.44002 11.1464 1.66669 14.253 1.66669H17.7464C20.8664 1.66669 21.1597 3.50669 21.3597 4.73335L21.653 6.46669C21.7464 7.01335 21.373 7.53335 20.8397 7.61335C20.293 7.70669 19.773 7.33335 19.693 6.80002L19.3997 5.06669C19.213 3.90669 19.173 3.68002 17.7597 3.68002H14.2664C12.853 3.68002 12.8264 3.86669 12.6264 5.05335L12.3197 6.78669C12.2397 7.28002 11.813 7.62669 11.333 7.62669Z" fill="white"/>
<path d="M20.2802 30.3333H11.7202C7.06686 30.3333 6.88019 27.76 6.73352 25.68L5.86686 12.2533C5.82686 11.7066 6.25352 11.2266 6.80019 11.1866C7.36019 11.16 7.82686 11.5733 7.86686 12.12L8.73352 25.5466C8.88019 27.5733 8.93352 28.3333 11.7202 28.3333H20.2802C23.0802 28.3333 23.1335 27.5733 23.2669 25.5466L24.1335 12.12C24.1735 11.5733 24.6535 11.16 25.2002 11.1866C25.7469 11.2266 26.1735 11.6933 26.1335 12.2533L25.2669 25.68C25.1202 27.76 24.9335 30.3333 20.2802 30.3333Z" fill="white"/>
<path d="M18.2134 23H13.7734C13.2268 23 12.7734 22.5467 12.7734 22C12.7734 21.4533 13.2268 21 13.7734 21H18.2134C18.7601 21 19.2134 21.4533 19.2134 22C19.2134 22.5467 18.7601 23 18.2134 23Z" fill="white"/>
<path d="M19.3337 17.6667H12.667C12.1203 17.6667 11.667 17.2134 11.667 16.6667C11.667 16.12 12.1203 15.6667 12.667 15.6667H19.3337C19.8803 15.6667 20.3337 16.12 20.3337 16.6667C20.3337 17.2134 19.8803 17.6667 19.3337 17.6667Z" fill="white"/>
</svg>
