<?xml version="1.0" standalone="no"?>
<!DOCTYPE svg PUBLIC "-//W3C//DTD SVG 20010904//EN"
 "http://www.w3.org/TR/2001/REC-SVG-20010904/DTD/svg10.dtd">
<svg version="1.0" xmlns="http://www.w3.org/2000/svg"
 width="512.000000pt" height="512.000000pt" viewBox="0 0 512.000000 512.000000"
 preserveAspectRatio="xMidYMid meet">
<metadata>
Created by potrace 1.14, written by Peter Selinger 2001-2017
</metadata>
<g transform="translate(0.000000,512.000000) scale(0.100000,-0.100000)"
fill="#000000" stroke="none">
<path d="M1038 4819 c-74 -11 -229 -71 -293 -113 -27 -19 -96 -82 -153 -140
-92 -94 -109 -118 -152 -209 -86 -179 -80 -52 -80 -1809 0 -1135 3 -1571 11
-1605 41 -169 87 -256 208 -389 105 -116 197 -182 321 -230 l75 -29 1535 -3
c1422 -2 1539 -1 1590 15 158 49 259 113 376 240 88 96 126 157 174 277 63
157 61 80 58 1766 -3 1434 -4 1539 -21 1595 -52 176 -116 283 -248 411 -98 95
-157 136 -249 172 -158 62 1 56 -1620 58 -811 1 -1501 -2 -1532 -7z m1092
-209 c13 -9 13 -10 -1 -10 -8 0 -33 -8 -55 -19 -21 -10 -97 -45 -169 -77 -126
-57 -470 -228 -490 -244 -5 -4 -46 -27 -90 -50 -44 -23 -101 -57 -128 -76 -26
-19 -49 -34 -51 -34 -9 0 -150 -99 -241 -170 -112 -86 -231 -208 -241 -244 -5
-20 50 -211 87 -301 4 -11 19 -58 34 -105 14 -47 30 -94 35 -105 4 -11 16 -45
26 -75 31 -98 43 -119 72 -126 184 -39 354 -218 499 -524 77 -162 93 -197 93
-204 0 -3 10 -28 21 -54 12 -26 28 -63 36 -82 9 -19 24 -53 34 -74 11 -22 19
-43 19 -47 0 -4 16 -42 35 -83 19 -42 35 -79 35 -82 0 -6 43 -100 101 -219 16
-33 47 -91 69 -130 22 -38 50 -89 62 -113 12 -23 30 -51 40 -62 10 -10 18 -22
18 -25 0 -8 96 -141 158 -219 60 -76 157 -173 212 -215 19 -14 37 -28 40 -31
34 -39 196 -125 296 -159 237 -79 568 -76 859 9 17 5 57 16 90 25 33 9 71 20
85 25 156 49 198 63 215 71 20 9 180 67 265 96 25 8 59 21 75 28 108 47 187
75 195 70 32 -20 -56 -196 -143 -287 -110 -116 -220 -172 -368 -189 -54 -6
-617 -9 -1495 -7 -1378 3 -1410 4 -1464 23 -138 50 -276 155 -341 260 -27 43
-68 141 -90 215 -21 67 -20 3037 0 3125 25 110 92 233 168 311 67 68 176 144
206 144 9 0 18 4 21 8 3 5 38 14 78 21 40 7 80 14 88 16 43 8 987 4 1000 -5z
m1903 -6 c206 -53 370 -207 443 -415 l29 -84 3 -1322 3 -1322 -24 -15 c-12 -9
-53 -27 -90 -41 -37 -13 -96 -36 -132 -50 -86 -33 -188 -72 -250 -94 -27 -11
-88 -33 -135 -51 -206 -77 -407 -120 -702 -151 -212 -22 -385 25 -563 152
-214 152 -416 438 -555 784 -17 44 -36 89 -40 100 -22 51 -226 659 -246 734
-68 244 -74 280 -74 425 0 216 51 427 139 575 56 95 174 217 274 285 103 69
270 154 397 202 278 106 575 211 675 239 33 9 82 23 109 31 26 8 58 14 70 14
11 0 28 5 36 10 9 6 131 10 294 10 220 0 291 -3 339 -16z m-2935 -998 c50 -26
72 -68 72 -137 0 -58 -2 -64 -37 -99 -70 -69 -164 -58 -217 24 -79 122 55 278
182 212z"/>
<path d="M2830 4280 c-16 -9 -32 -16 -171 -75 -110 -47 -321 -159 -382 -201
-26 -19 -50 -34 -53 -34 -12 0 -140 -102 -197 -157 -136 -131 -195 -250 -218
-435 -13 -113 -4 -251 27 -398 7 -36 14 -69 14 -75 0 -5 5 -3 10 5 5 8 10 51
10 95 0 76 20 254 35 320 63 269 194 443 492 651 70 49 132 91 137 94 6 3 44
26 84 53 40 26 74 47 77 47 3 0 49 27 102 60 71 43 91 60 73 59 -14 0 -32 -4
-40 -9z"/>
</g>
</svg>
