{
    "asset": {
        "copyright": "ALMT",
        "generator": "maya2glTF main fbbc95e5dc4d",
        "version": "2.0"
    },
    "scenes": [
        {
            "nodes": [
                2,
                0
            ]
        }
    ],
    "scene": 0,
    "nodes": [
        {
            "name": "polySurface4",
            "children": [
                1
            ],
            "translation": [
                0.0,
                1.501839280128479,
                -0.19425037503242496
            ]
        },
        {
            "name": "polySurface4:PIV",
            "mesh": 0,
            "translation": [
                0.0,
                -1.501839280128479,
                0.19425037503242496
            ]
        },
        {
            "name": "pCube3",
            "children": [
                3
            ],
            "translation": [
                0.0,
                1.359096646308899,
                -0.28464311361312868
            ]
        },
        {
            "name": "pCube3:PIV",
            "children": [
                4
            ],
            "translation": [
                0.0,
                -1.359096646308899,
                0.28464311361312868
            ]
        },
        {
            "name": "polySurface3",
            "children": [
                5
            ],
            "translation": [
                0.0,
                1.359096646308899,
                -4.58233642578125
            ]
        },
        {
            "name": "polySurface3:PIV",
            "children": [
                6
            ],
            "translation": [
                0.0,
                -1.359096646308899,
                4.58233642578125
            ]
        },
        {
            "name": "polySurface6",
            "children": [
                7
            ],
            "translation": [
                0.0,
                1.359096646308899,
                -4.58233642578125
            ]
        },
        {
            "name": "polySurface6:PIV",
            "mesh": 1,
            "translation": [
                0.0,
                -1.359096646308899,
                4.58233642578125
            ]
        }
    ],
    "meshes": [
        {
            "name": "polySurface4Shape",
            "extras": {
                "targetNames": []
            },
            "primitives": [
                {
                    "attributes": {
                        "NORMAL": 1,
                        "POSITION": 2,
                        "TANGENT": 3,
                        "TEXCOORD_0": 4
                    },
                    "indices": 0,
                    "mode": 4,
                    "material": 0
                }
            ]
        },
        {
            "name": "polySurfaceShape8",
            "extras": {
                "targetNames": []
            },
            "primitives": [
                {
                    "attributes": {
                        "NORMAL": 6,
                        "POSITION": 7,
                        "TANGENT": 8,
                        "TEXCOORD_0": 9
                    },
                    "indices": 5,
                    "mode": 4,
                    "material": 1
                }
            ]
        }
    ],
    "materials": [
        {
            "name": "GLSLShader2",
            "pbrMetallicRoughness": {
                "baseColorFactor": [
                    1.0,
                    1.0,
                    1.0,
                    1.0
                ],
                "baseColorTexture": {
                    "index": 0
                },
                "metallicFactor": 1.0,
                "roughnessFactor": 0.7096773982048035
            },
            "emissiveFactor": [
                0.0,
                0.0,
                0.0
            ],
            "alphaMode": "BLEND",
            "doubleSided": true
        },
        {
            "name": "GLSLShader1",
            "pbrMetallicRoughness": {
                "baseColorFactor": [
                    1.0,
                    1.0,
                    1.0,
                    1.0
                ],
                "baseColorTexture": {
                    "index": 0
                },
                "metallicFactor": 0.8440860509872437,
                "roughnessFactor": 0.2849462330341339,
                "metallicRoughnessTexture": {
                    "index": 1
                }
            },
            "emissiveFactor": [
                0.0,
                0.0,
                0.0
            ],
            "doubleSided": true
        }
    ],
    "textures": [
        {
            "sampler": 0,
            "source": 0
        },
        {
            "sampler": 0,
            "source": 1
        }
    ],
    "images": [
        {
            "uri": "g01_basecolor.png"
        },
        {
            "uri": "g01_metal.png"
        }
    ],
    "samplers": [
        {
            "magFilter": 9729,
            "minFilter": 9987,
            "wrapS": 10497,
            "wrapT": 10497
        }
    ],
    "accessors": [
        {
            "name": "polySurface4Shape#0/indices",
            "bufferView": 0,
            "byteOffset": 0,
            "componentType": 5123,
            "count": 9462,
            "max": [
                1715
            ],
            "min": [
                0
            ],
            "type": "SCALAR"
        },
        {
            "name": "polySurface4Shape#0/vertices/NORMAL",
            "bufferView": 1,
            "byteOffset": 0,
            "componentType": 5126,
            "count": 1716,
            "max": [
                0.9993971586227416,
                0.9992262721061708,
                0.999130129814148
            ],
            "min": [
                -0.9993972778320313,
                -0.999263882637024,
                -0.9961129426956176
            ],
            "type": "VEC3"
        },
        {
            "name": "polySurface4Shape#0/vertices/POSITION",
            "bufferView": 1,
            "byteOffset": 20592,
            "componentType": 5126,
            "count": 1716,
            "max": [
                4.113780975341797,
                2.88620400428772,
                0.06727337837219238
            ],
            "min": [
                -4.113780975341797,
                0.11747464537620545,
                -0.45577412843704226
            ],
            "type": "VEC3"
        },
        {
            "name": "polySurface4Shape#0/vertices/TANGENT",
            "bufferView": 2,
            "byteOffset": 0,
            "componentType": 5126,
            "count": 1716,
            "max": [
                0.9999970197677612,
                0.11618126928806304,
                0.9999964237213136,
                1.0
            ],
            "min": [
                -0.9999970197677612,
                -0.12435750663280489,
                -0.9999966025352478,
                -1.0
            ],
            "type": "VEC4"
        },
        {
            "name": "polySurface4Shape#0/vertices/TEXCOORD_0",
            "bufferView": 3,
            "byteOffset": 0,
            "componentType": 5126,
            "count": 1716,
            "max": [
                0.9955712556838988,
                0.8267042636871338
            ],
            "min": [
                0.4025099277496338,
                0.011776924133300782
            ],
            "type": "VEC2"
        },
        {
            "name": "polySurfaceShape8#0/indices",
            "bufferView": 4,
            "byteOffset": 0,
            "componentType": 5125,
            "count": 153624,
            "max": [
                72825
            ],
            "min": [
                0
            ],
            "type": "SCALAR"
        },
        {
            "name": "polySurfaceShape8#0/vertices/NORMAL",
            "bufferView": 1,
            "byteOffset": 41184,
            "componentType": 5126,
            "count": 72826,
            "max": [
                0.999977707862854,
                1.0,
                1.0
            ],
            "min": [
                -0.999977707862854,
                -1.0,
                -0.9999495148658752
            ],
            "type": "VEC3"
        },
        {
            "name": "polySurfaceShape8#0/vertices/POSITION",
            "bufferView": 1,
            "byteOffset": 915096,
            "componentType": 5126,
            "count": 72826,
            "max": [
                4.769410610198975,
                2.9715936183929445,
                0.11600422114133836
            ],
            "min": [
                -4.769410610198975,
                -0.25340038537979128,
                -9.28067684173584
            ],
            "type": "VEC3"
        },
        {
            "name": "polySurfaceShape8#0/vertices/TANGENT",
            "bufferView": 2,
            "byteOffset": 27456,
            "componentType": 5126,
            "count": 72826,
            "max": [
                1.0,
                1.0,
                1.0,
                1.0
            ],
            "min": [
                -1.0,
                -1.0,
                -1.0,
                -1.0
            ],
            "type": "VEC4"
        },
        {
            "name": "polySurfaceShape8#0/vertices/TEXCOORD_0",
            "bufferView": 3,
            "byteOffset": 13728,
            "componentType": 5126,
            "count": 72826,
            "max": [
                0.9999998807907105,
                1.0009664297103882
            ],
            "min": [
                0.0,
                0.22500991821289066
            ],
            "type": "VEC2"
        }
    ],
    "bufferViews": [
        {
            "name": "glass_final/data/indices-2",
            "buffer": 0,
            "byteOffset": 4192512,
            "byteLength": 18924,
            "target": 34963
        },
        {
            "name": "glass_final/data/vertices-12",
            "buffer": 0,
            "byteOffset": 1192672,
            "byteLength": 1789008,
            "byteStride": 12,
            "target": 34962
        },
        {
            "name": "glass_final/data/vertices-16",
            "buffer": 0,
            "byteOffset": 0,
            "byteLength": 1192672,
            "byteStride": 16,
            "target": 34962
        },
        {
            "name": "glass_final/data/vertices-8",
            "buffer": 0,
            "byteOffset": 2981680,
            "byteLength": 596336,
            "byteStride": 8,
            "target": 34962
        },
        {
            "name": "glass_final/data/indices-4",
            "buffer": 0,
            "byteOffset": 3578016,
            "byteLength": 614496,
            "target": 34963
        }
    ],
    "buffers": [
        {
            "name": "glass_final/data",
            "byteLength": 4211436,
            "uri": "glass_final0.bin"
        }
    ]
}
